<?xml version="1.0" encoding="UTF-8"?>
<svg width="164px" height="101px" viewBox="0 0 164 101" version="1.1" xmlns="http://www.w3.org/2000/svg" xmlns:xlink="http://www.w3.org/1999/xlink">
    <title>logo_1</title>
    <defs>
        <polygon id="path-1" points="0 99.9426752 163.133758 99.9426752 163.133758 0 0 0"></polygon>
    </defs>
    <g id="Landing-Page-Copy" stroke="none" stroke-width="1" fill="none" fill-rule="evenodd">
        <g id="Home-landing-page" transform="translate(-379.000000, -747.000000)">
            <g id="07_Our-Client" transform="translate(235.000000, 747.000000)">
                <g id="Client-Logo" transform="translate(144.000000, 0.000000)">
                    <g id="logo_1" transform="translate(0.000000, 0.356436)">
                        <path d="M74.3009554,42.2304459 C74.3009554,40.4527389 74.5933121,39.1750318 75.1786624,38.3985987 C75.7640127,37.6228025 76.7085987,37.2342675 78.0143312,37.2342675 C79.1627389,37.2342675 79.960828,37.5884076 80.4117834,38.2973248 C80.861465,39.006242 81.0863057,40.0814013 81.0863057,41.5215287 L81.0863057,51.3782166 L85.8799363,51.3782166 L85.8799363,40.6438217 C85.8799363,39.5635669 85.7843949,38.5794904 85.5933121,37.6896815 C85.4015924,36.8011465 85.0697452,36.0476433 84.5971338,35.4278981 C84.1251592,34.8094268 83.4773885,34.3259873 82.6563694,33.9769427 C81.8340764,33.6278981 80.7824841,33.4533758 79.4996815,33.4533758 C78.4869427,33.4533758 77.4964968,33.684586 76.5289809,34.1450955 C75.561465,34.606879 74.7735669,35.3438217 74.1659236,36.3565605 L74.0652866,36.3565605 L74.0652866,33.9259873 L69.5079618,33.9259873 L69.5079618,51.3782166 L74.3009554,51.3782166 L74.3009554,42.2304459 Z" id="Fill-1" fill-opacity="0.25" fill="#000000"></path>
                        <path d="M91.5002548,39.6307006 C91.6231847,39.203949 91.8378344,38.7982166 92.1416561,38.415414 C92.4454777,38.0332484 92.8505732,37.7128662 93.3569427,37.4536306 C93.8633121,37.1950318 94.4983439,37.0650955 95.264586,37.0650955 C96.4340127,37.0650955 97.3059873,37.3803822 97.8805096,38.0109554 C98.4543949,38.6408917 98.853121,39.5631847 99.0785987,40.7784713 L91.2805096,40.7784713 C91.3021656,40.4408917 91.3766879,40.0587261 91.5002548,39.6307006 M103.568408,45.9771975 L99.3486624,45.9771975 C99.1913376,46.5179618 98.7633121,47.0300637 98.0658599,47.5128662 C97.3684076,47.9975796 96.5352866,48.2389809 95.5684076,48.2389809 C94.2180892,48.2389809 93.1824204,47.8905732 92.4626752,47.1924841 C91.7416561,46.4956688 91.3486624,45.3695541 91.2805096,43.8166879 L103.872229,43.8166879 C103.961401,42.4663694 103.849936,41.1727389 103.535287,39.9345223 C103.218726,38.6975796 102.707898,37.5943949 101.998344,36.626242 C101.290064,35.6593631 100.383694,34.8880255 99.2811465,34.3141401 C98.1779618,33.7402548 96.8843312,33.4529936 95.3989809,33.4529936 C94.0709554,33.4529936 92.8620382,33.6892994 91.7703185,34.1625478 C90.6785987,34.6351592 89.7391083,35.2816561 88.9518471,36.1033121 C88.1633121,36.9249682 87.5556688,37.8982166 87.1289172,39.0230573 C86.7008917,40.148535 86.486879,41.3638217 86.486879,42.6695541 C86.486879,44.0198726 86.6951592,45.2574522 87.1110828,46.382293 C87.5282803,47.5077707 88.1180892,48.4752866 88.8843312,49.2854777 C89.6486624,50.0956688 90.5836943,50.7205096 91.686242,51.1587261 C92.7881529,51.5982166 94.0263694,51.8173248 95.3989809,51.8173248 C97.3792357,51.8173248 99.0671338,51.3676433 100.462675,50.4670064 C101.85758,49.5670064 102.893248,48.0701911 103.568408,45.9771975" id="Fill-3" fill-opacity="0.25" fill="#000000"></path>
                        <polygon id="Fill-5" fill-opacity="0.25" fill="#000000" points="129.966242 33.9259236 125.038217 33.9259236 121.83121 45.7412102 121.763057 45.7412102 118.792357 33.9259236 114.134395 33.9259236 111.23121 45.7749682 111.163057 45.7749682 107.956051 33.9259236 102.892357 33.9259236 108.429299 51.3781529 113.39172 51.3781529 116.36242 39.6647771 116.429299 39.6647771 119.535032 51.3781529 124.463694 51.3781529"></polygon>
                        <path d="M129.831274,40.9978981 C130.145924,41.5271975 130.561847,41.966051 131.080318,42.3144586 C131.597516,42.6641401 132.188599,42.9450318 132.852293,43.1584076 C133.515987,43.3730573 134.196879,43.5584076 134.894968,43.7157325 C136.604522,44.0756051 137.93828,44.4361146 138.894968,44.7959873 C139.851019,45.1558599 140.329363,45.6959873 140.329363,46.4157325 C140.329363,46.843758 140.228726,47.198535 140.026178,47.4794268 C139.823631,47.7609554 139.570127,47.9857962 139.266306,48.154586 C138.962484,48.3233758 138.625541,48.4475796 138.253567,48.5259236 C137.882866,48.6049045 137.528089,48.643758 137.19051,48.643758 C136.717898,48.643758 136.261847,48.5883439 135.822994,48.4756051 C135.38414,48.3628662 134.996242,48.1883439 134.658025,47.9520382 C134.321083,47.7157325 134.04465,47.4119108 133.831274,47.0405732 C133.617261,46.6692357 133.510892,46.2252866 133.510892,45.7074522 L128.953567,45.7074522 C128.998153,46.8775159 129.262484,47.8507643 129.746561,48.6271975 C130.230637,49.4036306 130.849108,50.0278344 131.603248,50.5010828 C132.357389,50.9736943 133.217898,51.3112739 134.186051,51.5131847 C135.15293,51.7163694 136.143376,51.8176433 137.156752,51.8176433 C138.147197,51.8176433 139.119809,51.721465 140.077134,51.5303822 C141.033185,51.3392994 141.882229,51.0068153 142.624904,50.5348408 C143.36758,50.0615924 143.96949,49.4373885 144.431274,48.6609554 C144.89242,47.8845223 145.123631,46.9227389 145.123631,45.7749682 C145.123631,44.9647771 144.965669,44.2838854 144.651019,43.732293 C144.335096,43.1813376 143.919172,42.7195541 143.401975,42.3482166 C142.883503,41.976879 142.29242,41.6794268 141.629363,41.4533121 C140.965032,41.2291083 140.28414,41.0373885 139.586688,40.8800637 C138.912166,40.7227389 138.247834,40.576242 137.594968,40.4412102 C136.942739,40.3061783 136.363758,40.153949 135.856752,39.9851592 C135.350382,39.8170064 134.939554,39.5972611 134.624268,39.3271975 C134.308981,39.0571338 134.152293,38.7080892 134.152293,38.2807006 C134.152293,37.920828 134.242102,37.6342038 134.422357,37.4195541 C134.601975,37.2061783 134.82172,37.043121 135.080318,36.9303822 C135.338917,36.8182803 135.626178,36.7443949 135.941465,36.7106369 C136.256115,36.676879 136.549108,36.6603185 136.819172,36.6603185 C137.673949,36.6603185 138.416624,36.8240127 139.047197,37.1494904 C139.677134,37.476242 140.026178,38.1010828 140.093694,39.0233758 L144.651019,39.0233758 C144.560573,37.943121 144.28414,37.0482166 143.823631,36.3392994 C143.361847,35.6303822 142.782229,35.0622293 142.085414,34.6348408 C141.387325,34.2074522 140.593694,33.9036306 139.705159,33.7233758 C138.81535,33.543121 137.899427,33.4533121 136.954204,33.4533121 C136.008344,33.4533121 135.085414,33.5380255 134.186051,33.7061783 C133.285414,33.8749682 132.475223,34.1679618 131.755478,34.5838854 C131.035096,35.0010828 130.455478,35.5692357 130.017261,36.2889809 C129.578408,37.0093631 129.358662,37.932293 129.358662,39.0571338 C129.358662,39.8227389 129.515987,40.4692357 129.831274,40.9978981" id="Fill-7" fill-opacity="0.25" fill="#000000"></path>
                        <mask id="mask-2" fill="white">
                            <use xlink:href="#path-1"></use>
                        </mask>
                        <g id="Clip-10"></g>
                        <polygon id="Fill-9" fill-opacity="0.25" fill="#000000" mask="url(#mask-2)" points="66.3191083 69.8636943 68.7267516 69.8636943 68.7267516 67.5019108 66.3191083 67.5019108"></polygon>
                        <path d="M77.2536306,67.0444586 C76.7912102,67.5234395 76.1326115,67.7629299 75.2765605,67.7629299 C74.7217834,67.7629299 74.2517197,67.6368153 73.8657325,67.384586 C73.4784713,67.1329936 73.1727389,66.8100637 72.9466242,66.4151592 C72.7198726,66.0208917 72.5555414,65.5794904 72.4555414,65.0928662 C72.3542675,64.6056051 72.303949,64.1272611 72.303949,63.6571975 C72.303949,63.1699363 72.3542675,62.6788535 72.4555414,62.1833121 C72.5555414,61.6877707 72.7281529,61.2349045 72.970828,60.8228025 C73.2141401,60.4113376 73.5294268,60.0763057 73.916051,59.8151592 C74.3020382,59.5552866 74.7803822,59.4247134 75.3523567,59.4247134 C76.8797452,59.4247134 77.7612739,60.1724841 77.9969427,61.6667516 L81.4982166,61.6667516 C81.4478981,60.8272611 81.2466242,60.1011465 80.893758,59.4884076 C80.5408917,58.8750318 80.0829299,58.3629299 79.5211465,57.951465 C78.9580892,57.54 78.3205096,57.2336306 77.6064968,57.0317197 C76.893121,56.8304459 76.1498089,56.7298089 75.3771975,56.7298089 C74.3198726,56.7298089 73.3784713,56.906242 72.5555414,57.2591083 C71.7332484,57.6113376 71.0357962,58.1024204 70.4650955,58.7323567 C69.893758,59.3616561 69.4619108,60.1094268 69.1682803,60.9743949 C68.8740127,61.8393631 68.726879,62.7750318 68.726879,63.7826752 C68.726879,64.7565605 68.8861146,65.650828 69.2052229,66.4654777 C69.5243312,67.2801274 69.9689172,67.9814013 70.5408917,68.5692994 C71.1109554,69.1565605 71.803949,69.6132484 72.6185987,69.9419108 C73.4332484,70.2686624 74.3275159,70.4323567 75.3014013,70.4323567 C77.0307006,70.4323567 78.4498089,69.9788535 79.5580892,69.0724841 C80.6663694,68.1661146 81.3383439,66.8476433 81.5733758,65.1183439 L78.1224204,65.1183439 C78.0052229,65.9234395 77.715414,66.5661146 77.2536306,67.0444586" id="Fill-11" fill-opacity="0.25" fill="#000000" mask="url(#mask-2)"></path>
                        <path d="M91.296242,65.1305096 C91.1956051,65.625414 91.0229936,66.0712739 90.7796815,66.4655414 C90.5363694,66.8604459 90.2089809,67.1750955 89.7975159,67.4101274 C89.385414,67.6451592 88.8777707,67.7629936 88.273949,67.7629936 C87.6694904,67.7629936 87.1656688,67.6451592 86.7624841,67.4101274 C86.3592994,67.1750955 86.0350955,66.8604459 85.7917834,66.4655414 C85.5491083,66.0712739 85.3764968,65.625414 85.2764968,65.1305096 C85.1752229,64.6356051 85.1255414,64.1273248 85.1255414,63.6063057 C85.1255414,63.0859236 85.1752229,62.5731847 85.2764968,62.07 C85.3764968,61.5655414 85.5491083,61.1209554 85.7917834,60.7349682 C86.0350955,60.3483439 86.3592994,60.0336943 86.7624841,59.7897452 C87.1656688,59.5464331 87.6694904,59.4247771 88.273949,59.4247771 C88.8777707,59.4247771 89.385414,59.5464331 89.7975159,59.7897452 C90.2089809,60.0336943 90.5363694,60.3483439 90.7796815,60.7349682 C91.0229936,61.1209554 91.1956051,61.5655414 91.296242,62.07 C91.3975159,62.5731847 91.4471975,63.0859236 91.4471975,63.6063057 C91.4471975,64.1273248 91.3975159,64.6356051 91.296242,65.1305096 M93.186051,58.6063057 C92.5975159,58.0101274 91.8885987,57.5489809 91.0573885,57.2209554 C90.2255414,56.8935669 89.2975159,56.7298726 88.273949,56.7298726 C87.2491083,56.7298726 86.3249045,56.8935669 85.5019745,57.2209554 C84.6796815,57.5489809 83.974586,58.0101274 83.3866879,58.6063057 C82.7981529,59.2018471 82.3452866,59.9247771 82.0261783,60.7725478 C81.7070701,61.6203185 81.5478344,62.5655414 81.5478344,63.6063057 C81.5478344,64.647707 81.7070701,65.5878344 82.0261783,66.4279618 C82.3452866,67.2674522 82.7981529,67.9852866 83.3866879,68.581465 C83.974586,69.1776433 84.6796815,69.6356051 85.5019745,69.9540764 C86.3249045,70.2731847 87.2491083,70.4324204 88.273949,70.4324204 C89.2975159,70.4324204 90.2255414,70.2731847 91.0573885,69.9540764 C91.8885987,69.6356051 92.5975159,69.1776433 93.186051,68.581465 C93.7733121,67.9852866 94.2274522,67.2674522 94.5465605,66.4279618 C94.8650318,65.5878344 95.0249045,64.647707 95.0249045,63.6063057 C95.0249045,62.5655414 94.8650318,61.6203185 94.5465605,60.7725478 C94.2274522,59.9247771 93.7733121,59.2018471 93.186051,58.6063057" id="Fill-12" fill-opacity="0.25" fill="#000000" mask="url(#mask-2)"></path>
                        <path d="M114.37051,57.7876433 C113.950127,57.4182166 113.446306,57.1494268 112.859045,56.9812739 C112.27051,56.8143949 111.63293,56.7296815 110.944395,56.7296815 C110.037389,56.7296815 109.252675,56.9481529 108.589618,57.3844586 C107.925287,57.8214013 107.40172,58.3258599 107.015096,58.8959236 C106.661592,58.0901911 106.146306,57.5277707 105.465414,57.2080255 C104.785159,56.8895541 104.033567,56.7296815 103.210637,56.7296815 C102.355223,56.7296815 101.594076,56.9150318 100.931656,57.2838217 C100.267962,57.6532484 99.7010828,58.1736306 99.2310191,58.8456051 L99.1807006,58.8456051 L99.1807006,57.0825478 L95.8055414,57.0825478 L95.8055414,70.1048408 L99.3826115,70.1048408 L99.3826115,62.5487898 C99.3826115,61.9105732 99.4743312,61.3940127 99.6590446,60.9991083 C99.843758,60.6048408 100.066688,60.302293 100.326561,60.0921019 C100.58707,59.8825478 100.85586,59.7392357 101.133567,59.6640764 C101.41,59.5889172 101.63293,59.5513376 101.801083,59.5513376 C102.371146,59.5513376 102.804268,59.6475159 103.097898,59.8411465 C103.391529,60.0335032 103.602357,60.2901911 103.727834,60.6092994 C103.853312,60.9284076 103.92465,61.2768153 103.941847,61.6538854 C103.957771,62.0322293 103.966688,62.4143949 103.966688,62.8003822 L103.966688,70.1048408 L107.543758,70.1048408 L107.543758,62.8507006 C107.543758,62.4475159 107.57242,62.0487898 107.632293,61.6538854 C107.690892,61.2596178 107.808089,60.9067516 107.985159,60.5965605 C108.160955,60.2857325 108.404268,60.0335032 108.715096,59.8411465 C109.025287,59.6475159 109.433567,59.5513376 109.936752,59.5513376 C110.440573,59.5513376 110.839299,59.6347771 111.133567,59.8029299 C111.427197,59.9710828 111.650127,60.1978344 111.801083,60.4825478 C111.952038,60.768535 112.044395,61.1042038 112.077516,61.4901911 C112.111274,61.8768153 112.127834,62.2882803 112.127834,62.7252229 L112.127834,70.1048408 L115.705541,70.1048408 L115.705541,61.3895541 C115.705541,60.5500637 115.58707,59.8322293 115.352675,59.235414 C115.117006,58.6398726 114.789618,58.1570701 114.37051,57.7876433" id="Fill-13" fill-opacity="0.25" fill="#000000" mask="url(#mask-2)"></path>
                        <polygon id="Fill-14" fill-opacity="0.25" fill="#000000" mask="url(#mask-2)" points="116.636306 70.1044586 119.016561 70.1044586 119.016561 67.7694268 116.636306 67.7694268"></polygon>
                        <path d="M128.26879,65.0670701 C128.26879,65.2683439 128.247771,65.5377707 128.205732,65.8740764 C128.163694,66.2097452 128.050318,66.5403185 127.865605,66.8683439 C127.680255,67.1957325 127.395541,67.4772611 127.009554,67.7116561 C126.62293,67.9473248 126.077707,68.0645223 125.372611,68.0645223 C125.085987,68.0645223 124.808917,68.0390446 124.540764,67.9893631 C124.272611,67.9390446 124.036943,67.8505096 123.835669,67.7250318 C123.634395,67.5989172 123.474522,67.4269427 123.356688,67.2084713 C123.23949,66.9906369 123.180255,66.7218471 123.180255,66.4027389 C123.180255,66.0664331 123.23949,65.7893631 123.356688,65.5715287 C123.474522,65.3530573 123.629936,65.1721656 123.82293,65.0294904 C124.015924,64.8874522 124.242675,64.7740764 124.503185,64.6893631 C124.763057,64.6052866 125.028025,64.5384076 125.296815,64.4880892 C125.582166,64.4377707 125.866879,64.3957325 126.152866,64.3626115 C126.438217,64.3288535 126.711465,64.2861783 126.971338,64.2358599 C127.231847,64.1855414 127.475796,64.123121 127.701274,64.0466879 C127.928662,63.9715287 128.118471,63.8670701 128.26879,63.7320382 L128.26879,65.0670701 Z M131.84586,67.2084713 L131.84586,60.4326752 C131.84586,59.6435032 131.670064,59.0091083 131.316561,58.5307643 C130.963694,58.0517834 130.511465,57.678535 129.956688,57.4097452 C129.402548,57.1415924 128.788535,56.9607006 128.118471,56.8683439 C127.44586,56.7759873 126.782803,56.7294904 126.127389,56.7294904 C125.405096,56.7294904 124.687898,56.800828 123.974522,56.9435032 C123.26051,57.0868153 122.617834,57.3263057 122.046497,57.6613376 C121.476433,57.9976433 121.005732,58.4428662 120.636943,58.9970064 C120.266879,59.5511465 120.056688,60.2479618 120.006369,61.0874522 L123.584076,61.0874522 C123.650318,60.3823567 123.885987,59.878535 124.288535,59.5759873 C124.69172,59.2734395 125.24586,59.123121 125.950955,59.123121 C126.270064,59.123121 126.56879,59.1441401 126.84586,59.1861783 C127.12293,59.2275796 127.366242,59.3116561 127.575796,59.4371338 C127.785987,59.5632484 127.95414,59.7396815 128.079618,59.9664331 C128.205732,60.1931847 128.26879,60.4995541 128.26879,60.8861783 C128.28535,61.2556051 128.176433,61.5371338 127.941401,61.7301274 C127.705732,61.9224841 127.387261,62.0702548 126.984076,62.1708917 C126.581529,62.2715287 126.119108,62.3466879 125.598726,62.3976433 C125.077707,62.4479618 124.549045,62.5148408 124.011465,62.5989172 C123.474522,62.6829936 122.941401,62.7963694 122.412739,62.9384076 C121.883439,63.0823567 121.413376,63.2957325 121.001911,63.5810828 C120.589809,63.8670701 120.25414,64.2485987 119.994268,64.7275796 C119.733758,65.2059236 119.603822,65.8148408 119.603822,66.5536943 C119.603822,67.2256688 119.717197,67.8052866 119.943949,68.2912739 C120.170064,68.778535 120.48535,69.1817197 120.888535,69.500828 C121.29172,69.8199363 121.761146,70.0549682 122.298726,70.2059236 C122.836306,70.3575159 123.415287,70.4326752 124.036943,70.4326752 C124.842675,70.4326752 125.631847,70.3148408 126.404459,70.0798089 C127.17707,69.845414 127.849045,69.433949 128.419745,68.846051 C128.436306,69.0638854 128.466242,69.2778981 128.50828,69.4874522 C128.549682,69.6982803 128.604459,69.9033758 128.671975,70.1046497 L132.299363,70.1046497 C132.130573,69.8364968 132.013376,69.433949 131.946497,68.8963694 C131.879618,68.3594268 131.84586,67.7957325 131.84586,67.2084713 L131.84586,67.2084713 Z" id="Fill-15" fill-opacity="0.25" fill="#000000" mask="url(#mask-2)"></path>
                        <path d="M141.619682,57.0822293 L141.619682,63.9089809 C141.619682,65.2357325 141.400573,66.1885987 140.964904,66.7675796 C140.527325,67.3471975 139.822229,67.6363694 138.848344,67.6363694 C137.99293,67.6363694 137.396115,67.3720382 137.060446,66.8427389 C136.72414,66.3140764 136.555987,65.5121656 136.555987,64.4376433 L136.555987,57.0822293 L132.980191,57.0822293 L132.980191,65.0924204 C132.980191,65.8987898 133.050892,66.6331847 133.193567,67.296242 C133.336242,67.9599363 133.584013,68.5223567 133.936242,68.9847771 C134.289745,69.4459236 134.771911,69.8032484 135.38465,70.0548408 C135.998025,70.3064331 136.782739,70.4325478 137.740064,70.4325478 C138.496115,70.4325478 139.234968,70.2643949 139.957261,69.9287261 C140.67828,69.5936943 141.266815,69.0471975 141.719682,68.2917834 L141.795478,68.2917834 L141.795478,70.1045223 L145.196115,70.1045223 L145.196115,57.0822293 L141.619682,57.0822293 Z" id="Fill-16" fill-opacity="0.25" fill="#000000" mask="url(#mask-2)"></path>
                        <path d="M41.3080892,29.075414 L36.3584076,29.075414 C35.6889809,29.075414 35.1405732,29.6231847 35.1405732,30.2926115 L35.1405732,35.6021656 C35.1405732,36.2715924 35.6889809,36.8193631 36.3584076,36.8193631 L41.3080892,36.8193631 C41.9781529,36.8193631 42.5252866,36.2715924 42.5252866,35.6021656 L42.5252866,30.2926115 C42.5252866,29.6231847 41.9781529,29.075414 41.3080892,29.075414" id="Fill-17" fill-opacity="0.25" fill="#000000" mask="url(#mask-2)"></path>
                        <path d="M41.3080892,63.1232484 L36.3584076,63.1232484 C35.6889809,63.1232484 35.1405732,63.6710191 35.1405732,64.3404459 L35.1405732,69.65 C35.1405732,70.3194268 35.6889809,70.8671975 36.3584076,70.8671975 L41.3080892,70.8671975 C41.9781529,70.8671975 42.5252866,70.3194268 42.5252866,69.65 L42.5252866,64.3404459 C42.5252866,63.6710191 41.9781529,63.1232484 41.3080892,63.1232484" id="Fill-18" fill-opacity="0.25" fill="#000000" mask="url(#mask-2)"></path>
                        <path d="M25.6812102,53.8440764 L25.6812102,48.893758 C25.6812102,48.2243312 25.1334395,47.6765605 24.4640127,47.6765605 L19.1544586,47.6765605 C18.4850318,47.6765605 17.9372611,48.2243312 17.9372611,48.893758 L17.9372611,53.8440764 C17.9372611,54.5135032 18.4850318,55.0612739 19.1544586,55.0612739 L24.4640127,55.0612739 C25.1334395,55.0612739 25.6812102,54.5135032 25.6812102,53.8440764" id="Fill-19" fill-opacity="0.25" fill="#000000" mask="url(#mask-2)"></path>
                        <path d="M58.5117197,47.6764331 L53.2028025,47.6764331 C52.5327389,47.6764331 51.9849682,48.2242038 51.9849682,48.8936306 L51.9849682,53.843949 C51.9849682,54.5133758 52.5327389,55.0611465 53.2028025,55.0611465 L58.5117197,55.0611465 C59.1817834,55.0611465 59.7289172,54.5133758 59.7289172,53.843949 L59.7289172,48.8936306 C59.7289172,48.2242038 59.1817834,47.6764331 58.5117197,47.6764331" id="Fill-20" fill-opacity="0.25" fill="#000000" mask="url(#mask-2)"></path>
                        <path d="M27.7829936,58.2199363 C27.3097452,57.7466879 26.534586,57.7466879 26.0613376,58.2199363 L22.3071975,61.9740764 C21.833949,62.4479618 21.833949,63.2224841 22.3071975,63.6957325 L25.8071975,67.1963694 C26.2810828,67.6696178 27.0556051,67.6696178 27.5294904,67.1963694 L31.2836306,63.4415924 C31.756879,62.9683439 31.756879,62.1931847 31.2836306,61.7199363 L27.7829936,58.2199363 Z" id="Fill-21" fill-opacity="0.25" fill="#000000" mask="url(#mask-2)"></path>
                        <path d="M49.883121,43.1201911 C50.3563694,43.5940764 51.1315287,43.5940764 51.6047771,43.1201911 L55.3589172,39.366051 C55.8328025,38.8928025 55.8328025,38.1176433 55.3589172,37.6443949 L51.8589172,34.1443949 C51.3850318,33.6711465 50.6105096,33.6711465 50.1366242,34.1443949 L46.383121,37.898535 C45.9098726,38.3717834 45.9098726,39.1463057 46.383121,39.6201911 L49.883121,43.1201911 Z" id="Fill-22" fill-opacity="0.25" fill="#000000" mask="url(#mask-2)"></path>
                        <path d="M51.6049045,58.2199363 C51.1316561,57.7466879 50.3564968,57.7466879 49.8832484,58.2199363 L46.3832484,61.7199363 C45.91,62.1931847 45.91,62.9683439 46.3832484,63.4415924 L50.1367516,67.1963694 C50.61,67.6696178 51.3851592,67.6696178 51.8584076,67.1963694 L55.3590446,63.6957325 C55.8329299,63.2224841 55.8329299,62.4479618 55.3590446,61.9740764 L51.6049045,58.2199363 Z" id="Fill-23" fill-opacity="0.25" fill="#000000" mask="url(#mask-2)"></path>
                        <path d="M27.529172,34.1442038 C27.0559236,33.6709554 26.2807643,33.6709554 25.8075159,34.1442038 L22.3075159,37.6448408 C21.8342675,38.1180892 21.8342675,38.8926115 22.3075159,39.3658599 L26.0610191,43.12 C26.5342675,43.5938854 27.3094268,43.5938854 27.7826752,43.12 L31.283949,39.62 C31.7571975,39.1467516 31.7571975,38.3715924 31.283949,37.8983439 L27.529172,34.1442038 Z" id="Fill-24" fill-opacity="0.25" fill="#000000" mask="url(#mask-2)"></path>
                        <polygon id="Stroke-25" mask="url(#mask-2)" points="0.318471338 99.6242038 162.815287 99.6242038 162.815287 0.318471338 0.318471338 0.318471338"></polygon>
                    </g>
                </g>
            </g>
        </g>
    </g>
</svg>