<?xml version="1.0" encoding="UTF-8"?>
<svg width="164px" height="101px" viewBox="0 0 164 101" version="1.1" xmlns="http://www.w3.org/2000/svg" xmlns:xlink="http://www.w3.org/1999/xlink">
    <title>logo_2</title>
    <defs>
        <polygon id="path-1" points="0 99.9426752 163.133758 99.9426752 163.133758 0 0 0"></polygon>
    </defs>
    <g id="Landing-Page-Copy" stroke="none" stroke-width="1" fill="none" fill-rule="evenodd">
        <g id="Home-landing-page" transform="translate(-570.000000, -747.000000)">
            <g id="07_Our-Client" transform="translate(235.000000, 747.000000)">
                <g id="Client-Logo" transform="translate(144.000000, 0.000000)">
                    <g id="logo_2" transform="translate(191.000000, 0.356436)">
                        <path d="M63.363758,44.8963694 C63.9395541,44.4001911 64.3688535,43.7352229 64.5726752,43.0021019 C64.8000637,42.1912739 64.7815924,41.3256688 64.6051592,40.5071975 C64.4293631,39.7116561 63.9975159,38.9772611 63.3873248,38.4384076 C62.7478344,37.8626115 61.963121,37.4766242 61.1612102,37.179172 C60.2287261,36.8409554 59.296242,36.4995541 58.3624841,36.1607006 C57.918535,35.9906369 57.4682166,35.8046497 57.1026115,35.4931847 C56.8229936,35.2587898 56.6242675,34.9294904 56.5624841,34.5689809 C56.4924204,34.1626115 56.5153503,33.723121 56.7172611,33.3549682 C56.8707643,33.0638854 57.1198089,32.833949 57.4051592,32.6728025 C57.841465,32.423758 58.3433758,32.3161146 58.8401911,32.2740764 C59.8790446,32.1982803 60.9344586,32.3657962 61.8949682,32.767707 C62.6236306,33.0632484 63.2898726,33.4906369 63.9147134,33.9638854 C63.9159873,33.0377707 63.9159873,32.1116561 63.9147134,31.1849045 C62.9153503,30.534586 61.7592994,30.145414 60.5809554,29.9842675 C59.5249045,29.845414 58.4376433,29.8530573 57.4013376,30.1180255 C56.5803185,30.3263057 55.7879618,30.6989172 55.1605732,31.2759873 C54.4701274,31.900828 54.0306369,32.7880892 53.9389172,33.7142038 C53.8478344,34.700828 53.9956051,35.7441401 54.5344586,36.5925478 C54.9331847,37.223758 55.5242675,37.7116561 56.1707643,38.0747134 C57.0217197,38.5619745 57.9656688,38.8435032 58.8809554,39.1823567 C59.6338217,39.4626115 60.4134395,39.6938217 61.1102548,40.1046497 C61.5089809,40.3390446 61.8714013,40.6804459 62.0198089,41.1294904 C62.1663057,41.5817197 62.1694904,42.09 61.9943312,42.534586 C61.8370064,42.9415924 61.5070701,43.2613376 61.1236306,43.4600637 C60.4484713,43.8091083 59.6682166,43.8836306 58.918535,43.8721656 C57.1440127,43.8511465 55.4198089,43.1498726 54.0471975,42.0422293 C54.0440127,42.9842675 54.0478344,43.9256688 54.0452866,44.8670701 C55.1892357,45.6524204 56.5605732,46.046051 57.9280892,46.1995541 C59.0236306,46.3161146 60.1440127,46.2772611 61.2121656,45.9944586 C61.9943312,45.7842675 62.7497452,45.4314013 63.363758,44.8963694" id="Fill-1" fill-opacity="0.25" fill="#000000"></path>
                        <path d="M127.28758,45.1735032 C127.91051,44.7429299 128.417516,44.1391083 128.708599,43.4384713 C129.055732,42.6180892 129.088854,41.6989809 128.960828,40.8276433 C128.841083,40.0289172 128.492675,39.2601274 127.931529,38.675414 C127.323885,38.0276433 126.52707,37.5957962 125.711146,37.2677707 C124.795223,36.9225478 123.871656,36.5970701 122.952548,36.2582166 C122.393312,36.0543949 121.81051,35.8518471 121.35828,35.4512102 C120.77293,34.9403822 120.664013,34.0155414 121.011146,33.3410191 C121.343631,32.7225478 122.048726,32.4301911 122.709873,32.3161783 C123.946178,32.1238217 125.232803,32.3270064 126.372293,32.8365605 C127.030892,33.1270064 127.63535,33.5225478 128.209236,33.953121 C128.213694,33.0289172 128.208599,32.1040764 128.211146,31.1798726 C126.879936,30.3110828 125.279299,29.9047134 123.697771,29.8907006 C122.428344,29.8607643 121.117516,30.1212739 120.037898,30.8129936 C119.362739,31.2461146 118.802866,31.8747771 118.501592,32.6225478 C118.253822,33.2193631 118.173567,33.8766879 118.213057,34.5187261 C118.246178,35.2263694 118.426433,35.9371975 118.802866,36.5435669 C119.179936,37.1569427 119.739809,37.6391083 120.356369,38.0028025 C121.025159,38.4040764 121.762102,38.6690446 122.495223,38.9282803 C123.250637,39.2098089 124.021975,39.4543949 124.76465,39.7715924 C125.21879,39.9773248 125.682484,40.2078981 126.01242,40.5938854 C126.38758,41.0289172 126.48121,41.6473885 126.38121,42.1996178 C126.299682,42.6709554 125.999682,43.0894268 125.596497,43.342293 C125.076115,43.6773248 124.451911,43.8008917 123.843631,43.8480255 C123.244268,43.8824204 122.639809,43.8575796 122.048726,43.7499363 C120.684395,43.5161783 119.406051,42.8887898 118.330892,42.0257325 C118.326433,42.9671338 118.332166,43.908535 118.328344,44.8499363 C119.171019,45.4384713 120.155096,45.797707 121.153822,46.0174522 C122.357006,46.2709554 123.608599,46.331465 124.824522,46.131465 C125.697134,45.9830573 126.55828,45.686242 127.28758,45.1735032" id="Fill-3" fill-opacity="0.25" fill="#000000"></path>
                        <path d="M144.436497,39.0827389 C143.928854,38.37 143.185541,37.8623567 142.402102,37.4942038 C141.547325,37.1050318 140.646688,36.8285987 139.770255,36.4948408 C139.021847,36.2024841 138.208471,36.0056688 137.572803,35.4897452 C136.988726,35.0215924 136.845414,34.1534395 137.115478,33.4782803 C137.256879,33.1285987 137.535223,32.8496178 137.860701,32.6655414 C138.309108,32.4094904 138.826306,32.2992994 139.338408,32.2598089 C140.345414,32.192293 141.368344,32.3547134 142.303376,32.7343312 C143.048599,33.0343312 143.733949,33.4642675 144.370255,33.9508917 C144.370255,33.0572611 144.370255,32.1629936 144.370255,31.2687261 C144.375987,31.2075796 144.356242,31.1483439 144.29828,31.1241401 C142.911019,30.2528025 141.253057,29.8642675 139.623758,29.8910191 C138.826306,29.8871975 138.026306,30.0196815 137.274713,30.2878344 C136.440318,30.5903822 135.660064,31.0935669 135.128854,31.8133121 C134.656242,32.4413376 134.407197,33.2209554 134.377898,34.003758 C134.347962,34.8445223 134.491274,35.7126752 134.916752,36.4489809 C135.308471,37.1349682 135.928854,37.6629936 136.609108,38.0515287 C137.456242,38.5419745 138.398917,38.8228662 139.311656,39.1617197 C140.079809,39.4464331 140.875987,39.6821019 141.585541,40.103121 C141.973439,40.3324204 142.323121,40.6636306 142.474076,41.0986624 C142.628854,41.558535 142.630764,42.0770064 142.454331,42.5317834 C142.303376,42.9152229 141.997006,43.2196815 141.641592,43.4190446 C140.957516,43.7948408 140.154331,43.8738217 139.385541,43.8604459 C137.605924,43.8432484 135.876624,43.1375159 134.500828,42.026051 C134.507834,42.97 134.484268,43.9164968 134.51293,44.859172 C135.267707,45.3897452 136.146051,45.725414 137.036497,45.9515287 C138.004013,46.1884713 139.006561,46.2865605 140.001465,46.2381529 C140.893185,46.1929299 141.787452,46.0209554 142.60465,45.6547134 C143.368344,45.3164968 144.063248,44.7884713 144.52949,44.0891083 C144.993185,43.3980255 145.212293,42.5578981 145.195732,41.7298726 C145.205924,40.8012102 144.988089,39.8432484 144.436497,39.0827389" id="Fill-5" fill-opacity="0.25" fill="#000000"></path>
                        <path d="M95.3856688,46.2647771 C95.3875796,40.8928025 95.3868748,35.521465 95.3856688,30.1501274 C94.5226115,30.1507643 93.6589172,30.1507643 92.7964968,30.1507643 C92.7926752,33.5201911 92.7984076,36.8902548 92.7933121,40.2603185 C89.1710191,36.81 85.5557325,33.3526752 81.9359873,29.9010828 C81.9372611,35.2685987 81.9340764,40.6361146 81.9372611,46.0029936 C82.7990446,46.0049045 83.660828,45.9998089 84.5226115,46.0055414 C84.5340764,42.5794268 84.5213376,39.1526752 84.5296178,35.7271975 C85.716242,36.8590446 86.883758,38.0125478 88.0646497,39.1520382 C90.5035032,41.5233758 92.9468153,43.8915287 95.3856688,46.2647771" id="Fill-7" fill-opacity="0.25" fill="#000000"></path>
                        <path d="M26.6518471,41.8690446 C26.5563057,42.4098089 26.2333758,42.9059873 25.7696815,43.2034395 C25.2257325,43.5601274 24.5588535,43.664586 23.9187261,43.6715924 C22.7919745,43.6709554 21.6652229,43.6722293 20.5378344,43.6703185 C20.5378344,42.1282803 20.5384713,40.5856051 20.5378344,39.0435669 C21.664586,39.0416561 22.7913376,39.0442038 23.9180892,39.042293 C24.3633121,39.0352866 24.8129936,39.0907006 25.2352866,39.2371975 C25.697707,39.3945223 26.1231847,39.6919745 26.3792357,40.1149045 C26.6970701,40.6346497 26.7594904,41.2779618 26.6518471,41.8690446 M22.8824204,32.4824204 C23.4333758,32.4836943 23.9900637,32.475414 24.5333758,32.5875159 C25.0142675,32.6856051 25.4989809,32.8900637 25.8174522,33.2766879 C26.1792357,33.708535 26.2690446,34.3015287 26.2301911,34.8473885 C26.1989809,35.3442038 26.0104459,35.8486624 25.6289172,36.1830573 C25.1110828,36.6384713 24.3970701,36.7696815 23.7282803,36.8021656 C22.6664968,36.8110828 21.6047134,36.7983439 20.5435669,36.808535 C20.531465,35.3671338 20.5416561,33.9250955 20.5378344,32.4830573 C21.32,32.4817834 22.1008917,32.4830573 22.8824204,32.4824204 M29.0371975,39.953121 C28.697707,39.1352866 28.0709554,38.4365605 27.2811465,38.031465 C27.1321019,37.9492994 26.9652229,37.9034395 26.8225478,37.8098089 C27.6881529,37.4709554 28.3321019,36.6951592 28.6142675,35.8219108 C28.8798726,35.008535 28.8785987,34.12 28.6900637,33.2900637 C28.5168153,32.5512102 28.1149045,31.8652229 27.5365605,31.3715924 C26.8276433,30.7556688 25.9149045,30.4289172 24.9996178,30.2747771 C24.0359236,30.1066242 23.0550318,30.1594904 22.0811465,30.1505732 C20.6951592,30.1505732 19.3104459,30.1505732 17.9244586,30.1512102 C17.9231847,35.4346497 17.9231847,40.7187261 17.9244586,46.0028025 C19.764586,46.0034395 21.6053503,46.0028025 23.4454777,46.0034395 C24.2824204,46.0161783 25.1282803,45.9881529 25.9442038,45.7824204 C26.8913376,45.5518471 27.8098089,45.0779618 28.4295541,44.308535 C28.9792357,43.6371975 29.2607643,42.7785987 29.3206369,41.9206369 C29.3792357,41.2543949 29.3015287,40.5703185 29.0371975,39.953121" id="Fill-9" fill-opacity="0.25" fill="#000000"></path>
                        <path d="M44.4464331,45.6670701 C45.4897452,45.2046497 46.3770064,44.3957325 46.9177707,43.3887261 C47.5445223,42.2384076 47.7661783,40.9059236 47.7451592,39.6071975 C47.7451592,36.4549682 47.7451592,33.3027389 47.7445223,30.1511465 C46.8496178,30.1505096 45.9553503,30.1505096 45.0610828,30.1511465 C45.058535,33.178535 45.0604459,36.2059236 45.0598089,39.2326752 C45.0687261,40.0167516 45.0056688,40.8116561 44.7636306,41.5613376 C44.5578981,42.1919108 44.2024841,42.7944586 43.6629936,43.1950955 C43.0203185,43.6855414 42.1891083,43.8536943 41.3948408,43.8492357 C40.6133121,43.8505096 39.8018471,43.679172 39.1668153,43.2021019 C38.5235032,42.7250318 38.1400637,41.9766242 37.9572611,41.2110191 C37.7190446,40.2715287 37.759172,39.2950955 37.7572611,38.334586 C37.7572611,35.6071975 37.7578981,32.878535 37.7572611,30.1505096 C36.8623567,30.1505096 35.9674522,30.1505096 35.0731847,30.1511465 C35.0706369,33.2868153 35.0731847,36.4218471 35.0719108,39.5575159 C35.0617197,40.4485987 35.1566242,41.3466879 35.414586,42.200828 C35.6438854,42.9492357 36.003121,43.6632484 36.5101274,44.2613376 C36.9349682,44.7708917 37.4661783,45.1893631 38.0521656,45.501465 C38.8502548,45.9288535 39.7451592,46.1517834 40.6438854,46.2288535 C41.9292357,46.3320382 43.2598089,46.1963694 44.4464331,45.6670701" id="Fill-11" fill-opacity="0.25" fill="#000000"></path>
                        <path d="M71.6228662,30.1480892 C71.6133121,35.4328025 71.6203185,40.7181529 71.6196815,46.0035032 C72.5158599,45.9984076 73.4126752,46.0124204 74.3088535,45.9964968 C74.2967516,40.7149682 74.3088535,35.4321656 74.303121,30.1506369 C73.4094904,30.1487261 72.5158599,30.1538217 71.6228662,30.1480892" id="Fill-13" fill-opacity="0.25" fill="#000000"></path>
                        <path d="M112.109172,43.5885987 C109.793885,43.5892357 107.477962,43.5892357 105.162675,43.5885987 C105.161401,41.9561146 105.161401,40.3229936 105.162675,38.6898726 C107.239108,38.6892357 109.314904,38.6898726 111.391338,38.6898726 C111.392611,37.9038854 111.392611,37.119172 111.391338,36.3338217 C109.314904,36.3331847 107.239108,36.3350955 105.162675,36.3331847 C105.161401,35.0694904 105.161401,33.8057962 105.162675,32.541465 C107.477962,32.540828 109.794522,32.5421019 112.110446,32.541465 C112.111083,31.7440127 112.111083,30.9471975 112.110446,30.1503822 C108.916178,30.1478344 105.723185,30.1561146 102.529554,30.1465605 C102.515541,31.1484713 102.527643,32.1510191 102.523185,33.1535669 C102.527006,37.4382803 102.516815,41.7223567 102.52828,46.0057962 C105.722548,45.9994268 108.916178,46.0045223 112.109809,46.0032484 C112.111083,45.1981529 112.11172,44.3936943 112.109172,43.5885987" id="Fill-15" fill-opacity="0.25" fill="#000000"></path>
                        <path d="M49.6066879,54.2247134 C49.6041401,57.5393631 49.6085987,60.8546497 49.6041401,64.1699363 C46.0073248,60.7724841 42.4143312,57.3699363 38.8207006,53.9699363 C38.8136943,59.2521019 38.8187898,64.5349045 38.8181529,69.8170701 C39.6773885,69.8189809 40.5366242,69.8170701 41.3958599,69.8170701 C41.3971338,66.4444586 41.3964968,63.0718471 41.3964968,59.6979618 C44.9907643,63.1521019 48.5754777,66.6170701 52.1735669,70.0661146 C52.172293,64.7858599 52.1735669,59.5049682 52.1729299,54.2247134 C51.3175159,54.2240764 50.4621019,54.2240764 49.6066879,54.2247134" id="Fill-17" fill-opacity="0.25" fill="#000000"></path>
                        <path d="M68.1856051,62.285414 C67.5722293,61.7650318 66.8391083,61.407707 66.0881529,61.1325478 C65.1435669,60.7898726 64.1970701,60.4516561 63.2524841,60.107707 C62.7792357,59.9255414 62.2919745,59.7236306 61.9276433,59.3580255 C61.4569427,58.9045223 61.3588535,58.1618471 61.5633121,57.5612102 C61.6894268,57.2051592 61.9588535,56.9121656 62.2811465,56.7229936 C62.7110828,56.4650318 63.2098089,56.3516561 63.7047134,56.3019745 C64.7448408,56.218535 65.8053503,56.3771338 66.7715924,56.774586 C67.5034395,57.0675796 68.1741401,57.4936943 68.8028025,57.9663057 C68.8040764,57.052293 68.8053503,56.1389172 68.8021656,55.2242675 C67.5461146,54.4198089 66.0582166,54.0242675 64.576051,53.9675796 C63.4658599,53.9172611 62.3289172,54.0675796 61.3123567,54.5325478 C60.6053503,54.8548408 59.9614013,55.3427389 59.5225478,55.9892357 C59.0849682,56.6242675 58.8690446,57.3994268 58.8735032,58.1682166 C58.8594904,58.9796815 59.0295541,59.8108917 59.463949,60.5051592 C59.8926115,61.1956051 60.553121,61.7140764 61.2658599,62.0885987 C62.0563057,62.5134395 62.92,62.7726752 63.7588535,63.0828662 C64.4951592,63.3529299 65.253121,63.5809554 65.942293,63.9643949 C66.342293,64.1892357 66.7225478,64.5070701 66.8932484,64.9471975 C67.0550318,65.3675796 67.0677707,65.8446497 66.9371975,66.2752229 C66.8053503,66.7070701 66.4773248,67.0586624 66.086242,67.2733121 C65.4123567,67.6401911 64.6238217,67.7204459 63.8690446,67.7108917 C62.1002548,67.696879 60.3741401,67.0083439 59.0059873,65.9045223 C59.0015287,66.8312739 59.0098089,67.7586624 59.0008917,68.686051 C59.3664968,68.9561146 59.7792357,69.1554777 60.1945223,69.3370064 C61.1652229,69.7421019 62.2059873,69.963121 63.253121,70.0344586 C64.263949,70.096242 65.2932484,70.0421019 66.2684076,69.7542038 C67.0505732,69.5261783 67.8040764,69.1510191 68.3957962,68.5841401 C68.9594904,68.0580255 69.3550318,67.3580255 69.5136306,66.6038854 C69.6785987,65.8236306 69.6391083,65.0045223 69.4397452,64.2344586 C69.2391083,63.4726752 68.786879,62.7898726 68.1856051,62.285414" id="Fill-19" fill-opacity="0.25" fill="#000000"></path>
                        <path d="M28.5247134,69.8173885 C29.4189809,69.818124 30.3138854,69.8186624 31.2087898,69.8173885 L31.2087898,54.2250318 C30.3138854,54.2243949 29.4189809,54.2243949 28.5247134,54.2243949 C28.5228025,59.4224841 28.5234395,64.6199363 28.5247134,69.8173885" id="Fill-21" fill-opacity="0.25" fill="#000000"></path>
                        <path d="M76.4950955,69.8173885 C77.3855414,69.8173885 78.2772611,69.8192994 79.167707,69.8173885 C79.1683439,64.6199363 79.1683439,59.4224841 79.167707,54.2250318 C78.2772611,54.2243949 77.3855414,54.2250318 76.4957325,54.2243949 C76.4938217,59.4224841 76.4944586,64.6199363 76.4950955,69.8173885" id="Fill-23" fill-opacity="0.25" fill="#000000"></path>
                        <path d="M97.6622293,63.976051 C97.4380255,64.8193631 97.0144586,65.6244586 96.3724204,66.2231847 C95.6475796,66.9110828 94.6736943,67.286879 93.6915287,67.4015287 C93.1749682,67.4690446 92.6552229,67.4473885 92.1367516,67.4505732 C91.2921656,67.4505732 90.4475796,67.4518471 89.6029936,67.4505732 C89.6036306,63.8231847 89.6036306,60.1957962 89.6029936,56.5690446 C90.4010828,56.5670648 91.199172,56.5684076 91.9959873,56.5677707 C92.5131847,56.5722293 93.0316561,56.5505732 93.5482166,56.6040764 C94.4023567,56.686879 95.2564968,56.9480255 95.9564968,57.4556688 C96.566051,57.8881529 97.0412102,58.4964331 97.3501274,59.175414 C97.6717834,59.8792357 97.8303822,60.6480255 97.8826115,61.4174522 C97.9386624,62.2747771 97.8826115,63.1442038 97.6622293,63.976051 M97.6603185,55.6129936 C96.3533121,54.663949 94.7227389,54.2461146 93.1227389,54.2244586 C91.0622293,54.2238217 89.0023567,54.2238217 86.9424841,54.2244586 C86.9412102,59.4225478 86.9418471,64.62 86.9418471,69.8174522 C89.0036306,69.8193631 91.065414,69.8174522 93.1265605,69.8187261 C94.1807006,69.8040764 95.2386624,69.6212739 96.2176433,69.2244586 C97.4705096,68.7238217 98.5730573,67.8403822 99.3068153,66.7059873 C100.196624,65.3582166 100.566688,63.7257325 100.580701,62.1257325 C100.590892,61.0066242 100.435478,59.8773248 100.051401,58.8225478 C99.5915287,57.5505732 98.766051,56.4008917 97.6603185,55.6129936" id="Fill-25" fill-opacity="0.25" fill="#000000"></path>
                        <path d="M115.713121,54.2235032 C112.537962,54.226051 109.362166,54.2235032 106.187006,54.2247771 C106.186369,59.4222293 106.186369,64.6196815 106.187006,69.8171338 C109.362166,69.8184076 112.538599,69.8178692 115.713758,69.8171338 C115.715038,69.0285987 115.715038,68.2400637 115.714395,67.4508917 C113.414395,67.4508917 111.113121,67.4515287 108.813121,67.4508917 L108.813121,62.6228662 C110.874904,62.6177707 112.937962,62.6298726 114.999108,62.6164968 C114.992102,61.8489809 114.998471,61.081465 114.995924,60.313949 C112.936051,60.313949 110.876178,60.3120382 108.816306,60.314586 C108.809299,59.0661783 108.814395,57.8171338 108.813758,56.5680892 C111.113121,56.5680892 113.414395,56.5687261 115.714395,56.5680892 C115.713758,55.7865605 115.716943,55.0050318 115.713121,54.2235032" id="Fill-27" fill-opacity="0.25" fill="#000000"></path>
                        <path d="M126.31535,61.2789809 C126.314713,59.6929936 126.314713,58.1076433 126.31535,56.5210191 C127.06121,56.5203822 127.80707,56.5210191 128.55293,56.5210191 C129.128726,56.5248408 129.71535,56.4878981 130.278408,56.6394904 C130.835732,56.7770701 131.366943,57.0936306 131.680955,57.5853503 C132.015987,58.1006369 132.097516,58.7458599 132.008344,59.3452229 C131.936369,59.8197452 131.71535,60.2757962 131.358025,60.6012739 C130.832548,61.0840764 130.098153,61.266879 129.400064,61.2789809 L126.31535,61.2789809 Z M132.510892,62.9726115 C133.146561,62.6828025 133.700701,62.2101911 134.056115,61.6070064 C134.531274,60.8031847 134.686051,59.8503185 134.678408,58.9286624 C134.693694,58.0273885 134.501338,57.1031847 134.021083,56.3318471 C133.619172,55.6764331 133.010255,55.1585987 132.318535,54.8286624 C131.444013,54.3993631 130.459936,54.2433121 129.493057,54.2242038 C127.547197,54.2242038 125.600064,54.2248408 123.654204,54.2242038 C123.651656,59.422293 123.65293,64.6197452 123.653567,69.8171975 C124.538917,69.8191083 125.424904,69.8152866 126.310255,69.8197452 C126.32172,67.711465 126.310892,65.6025478 126.31535,63.4942675 C126.93828,63.4929936 127.56121,63.4942675 128.184777,63.4936306 C130.009618,65.5987261 131.826178,67.710828 133.649745,69.8171975 C134.66121,69.8171975 135.672675,69.8191083 136.684777,69.8165605 C134.808981,67.6751592 132.928089,65.5382166 131.050382,63.3987261 C131.552293,63.3165605 132.049108,63.189172 132.510892,62.9726115 L132.510892,62.9726115 Z" id="Fill-29" fill-opacity="0.25" fill="#000000"></path>
                        <mask id="mask-2" fill="white">
                            <use xlink:href="#path-1"></use>
                        </mask>
                        <g id="Clip-32"></g>
                        <polygon id="Stroke-31" mask="url(#mask-2)" points="0.318471338 99.6242038 162.815287 99.6242038 162.815287 0.318471338 0.318471338 0.318471338"></polygon>
                    </g>
                </g>
            </g>
        </g>
    </g>
</svg>