<?xml version="1.0" encoding="UTF-8"?>
<svg width="164px" height="100px" viewBox="0 0 164 100" version="1.1" xmlns="http://www.w3.org/2000/svg" xmlns:xlink="http://www.w3.org/1999/xlink">
    <title>logo_3</title>
    <defs>
        <polygon id="path-1" points="0 99.9426752 163.133758 99.9426752 163.133758 0 0 0"></polygon>
    </defs>
    <g id="Landing-Page-Copy" stroke="none" stroke-width="1" fill="none" fill-rule="evenodd">
        <g id="Home-landing-page" transform="translate(-761.000000, -747.000000)">
            <g id="07_Our-Client" transform="translate(235.000000, 747.000000)">
                <g id="Client-Logo" transform="translate(144.000000, 0.000000)">
                    <g id="logo_3" transform="translate(382.000000, 0.000000)">
                        <path d="M18.513949,55.1204459 L25.6502548,39.4319108 C17.414586,42.7835032 15.1400637,48.0465605 18.513949,55.1204459" id="Fill-1" fill-opacity="0.25" fill="#000000"></path>
                        <path d="M33.4671975,37.9584076 C28.0792994,43.7590446 23.4417197,49.9896178 20.1557325,56.9902548 C20.4856688,57.387707 20.8818471,57.7405732 21.327707,58.0488535 C24.2480892,60.0552229 29.3480892,60.0590446 32.6175159,57.443121 C36.2226115,54.3813376 37.3652866,47.5749682 37.5684713,39.3418471 C37.5856688,38.6813376 37.5964968,38.0131847 37.6022293,37.3348408 C37.5213376,35.6029936 34.8882166,36.0596815 33.4671975,37.9584076" id="Fill-3" fill-opacity="0.25" fill="#000000"></path>
                        <path d="M43.4287261,49.8242675 C44.963758,43.9994268 52.5497452,41.3357325 53.296242,44.8784076 C54.2249045,48.8866879 48.9172611,50.4038854 43.4287261,49.8242675 M56.9287261,43.6764968 C55.0134395,36.0268153 40.4032484,41.2847771 39.6293631,49.6975159 C38.1726752,57.5471975 44.096242,61.5452866 53.2764968,58.1147134 L53.696242,54.5350955 C50.3159873,56.9790446 44.3682166,57.6847771 43.3057962,52.7102548 C50.9484713,52.4917834 58.2370064,51.3268153 56.9287261,43.6764968" id="Fill-5" fill-opacity="0.25" fill="#000000"></path>
                        <path d="M71.1556688,39.9709554 C66.9180892,39.864586 64.6193631,41.7575796 63.2543949,44.608535 L63.9072611,40.5913376 L60.1524841,40.5913376 L56.9505732,59.2378344 L60.608535,59.2378344 C61.3276433,55.0250955 61.8492994,50.6168153 64.1352866,46.9913376 C65.7696815,44.531465 68.6098089,42.7798726 71.0588535,43.2034395 C72.3321019,43.4970701 73.0397452,44.2416561 72.6582166,46.8926115 L70.4696815,59.3677707 L74.1938854,59.3677707 L76.4467516,47.2849682 C77.163949,41.9301911 74.3805096,40.176051 71.1556688,39.9709554" id="Fill-7" fill-opacity="0.25" fill="#000000"></path>
                        <polygon id="Fill-9" fill-opacity="0.25" fill="#000000" points="91.4053503 40.4405732 84.2142675 53.3131847 81.3900637 40.5412102 77.7270064 40.5412102 82.3652229 59.6310191 83.775414 59.6310191 95.3034395 40.4405732"></polygon>
                        <path d="M108.479618,43.5664968 C108.413376,45.5442038 107.921656,47.7766879 107.235669,50.0206369 C106.697452,52.2715924 103.807006,56.8429299 99.9414013,56.6741401 C98.2942675,56.8486624 93.6840764,54.4378344 97.7585987,47.2301911 C99.7070064,44.2728662 104.343949,41.953758 108.479618,43.5664968 M95.6414013,44.4747771 C90.6656051,50.053758 92.010828,58.3212739 98.1949045,59.664586 C102.328662,60.1359236 105.521656,57.9512102 106.866879,54.7919745 L105.891083,59.2282803 L109.453503,59.2282803 L112.647771,41.5505732 C106.604459,38.7180892 100.882166,39.1473885 95.6414013,44.4747771" id="Fill-11" fill-opacity="0.25" fill="#000000"></path>
                        <path d="M116.791592,53.4857962 L118.629809,43.5609554 L124.513248,43.5609554 L125.753376,40.5284713 L119.044459,40.5284713 L120.192866,34.6450318 L115.918344,36.7584076 L113.115796,54.4972611 C112.93172,59.4157325 117.03172,59.8921656 120.513885,59.1380255 L121.203694,56.1978981 C117.541911,57.2284713 116.217707,56.0870701 116.791592,53.4857962" id="Fill-13" fill-opacity="0.25" fill="#000000"></path>
                        <path d="M139.754522,49.9306369 C138.94879,53.6128025 135.534777,56.6026115 132.135414,56.6083586 C128.737962,56.6159873 126.633503,53.6325478 127.439236,49.9510191 C128.244968,46.2707643 131.658344,43.2784076 135.057707,43.2726686 C138.455796,43.2675796 140.559618,46.2503822 139.754522,49.9306369 M135.239236,39.7987898 C129.701019,39.7987898 124.46535,44.2841401 123.555159,49.8115287 C122.643694,55.340828 126.399108,59.8261783 131.937325,59.8261783 C137.476178,59.8261783 142.710573,55.340828 143.621401,49.8115287 C144.533503,44.2841401 140.776178,39.7987898 135.239236,39.7987898" id="Fill-15" fill-opacity="0.25" fill="#000000"></path>
                        <polygon id="Fill-17" fill-opacity="0.25" fill="#000000" points="147.793439 41.3322293 145.107452 41.3322293 144.992166 41.913758 146.037389 41.913758 145.481975 44.836051 146.113185 44.8322293 146.666688 41.913758 147.677516 41.913758"></polygon>
                        <polygon id="Fill-19" fill-opacity="0.25" fill="#000000" points="151.585223 41.3138854 149.748917 44.0782166 148.914522 41.350828 148.359108 41.3393631 147.555287 44.8419108 148.085223 44.8438217 148.668662 42.5317197 149.356561 44.9094268 149.866752 44.9094268 151.449554 42.5667516 151.260382 44.8527389 151.814522 44.8527389 152.076943 41.3157962"></polygon>
                        <mask id="mask-2" fill="white">
                            <use xlink:href="#path-1"></use>
                        </mask>
                        <g id="Clip-22"></g>
                        <polygon id="Stroke-21" mask="url(#mask-2)" points="0.318471338 99.6242038 162.815287 99.6242038 162.815287 0.318471338 0.318471338 0.318471338"></polygon>
                    </g>
                </g>
            </g>
        </g>
    </g>
</svg>