<?xml version="1.0" encoding="UTF-8"?>
<svg width="164px" height="101px" viewBox="0 0 164 101" version="1.1" xmlns="http://www.w3.org/2000/svg" xmlns:xlink="http://www.w3.org/1999/xlink">
    <title>logo_4</title>
    <defs>
        <polygon id="path-1" points="0 99.9426752 163.133758 99.9426752 163.133758 0 0 0"></polygon>
    </defs>
    <g id="Landing-Page-Copy" stroke="none" stroke-width="1" fill="none" fill-rule="evenodd">
        <g id="Home-landing-page" transform="translate(-952.000000, -747.000000)">
            <g id="07_Our-Client" transform="translate(235.000000, 747.000000)">
                <g id="Client-Logo" transform="translate(144.000000, 0.000000)">
                    <g id="logo_4" transform="translate(573.000000, 0.356436)">
                        <path d="M53.5015924,57.9512102 C52.8780255,57.8098089 52.3792994,57.7932484 51.9914013,57.686879 L51.9907643,57.686879 C51.8512739,57.6486624 51.7257962,57.5989809 51.6136943,57.5276433 C51.4436306,57.4333758 51.3009554,57.2735032 51.2092357,56.3442038 L47.1410828,56.3448408 C47.0640127,57.2913376 46.9493631,57.4518471 46.7977707,57.5276433 C46.6735669,57.5996178 46.5423567,57.6492994 46.3990446,57.686879 L51.1582803,57.686879 L46.3990446,57.6881529 C46.083758,57.7722293 45.7111465,57.8002548 45.2417197,57.8798726 C44.7729299,57.8002548 44.3996815,57.7722293 44.0843949,57.686879 L44.0818471,57.686879 C43.939172,57.6486624 43.8085987,57.5989809 43.6863057,57.5276433 C43.5729299,57.4709554 43.4812102,57.1607643 43.4092357,56.3442038 C43.3251592,55.3856051 43.2703822,53.7301911 43.2436306,50.9703185 C43.2353503,50.1709554 43.2296178,49.2785987 43.2270701,48.2836943 L39.3136943,48.2849682 C39.3347134,49.2805096 39.3487261,50.1722293 39.3557325,50.9703185 L40.3124204,50.9703185 L39.3557325,50.9709554 C39.3818471,53.742293 39.3251592,55.3881529 39.206051,56.3429299 C39.1073248,57.1257325 38.9665605,57.4403822 38.7926752,57.5276433 C38.6805732,57.5989809 38.5901274,57.6486624 38.5009554,57.686879 L39.3328025,57.686879 L38.5009554,57.686879 C38.2544586,57.7932484 38.0187898,57.8098089 37.3671975,57.9512102 C37.0595541,58.0282803 37.1366242,58.4136306 37.3289809,58.375414 C38.4461783,58.2983439 39.4869427,58.2594904 41.2589172,58.2594904 C42.6455414,58.2594904 43.7926752,58.2798726 44.7003185,58.3193631 C45.2117834,58.3333758 45.2321656,58.3333758 45.783121,58.3193631 C46.6914013,58.2798726 47.8378981,58.2594904 49.2238854,58.2594904 C50.9964968,58.2594904 52.4226115,58.2983439 53.5398089,58.375414 C53.7321656,58.4136306 53.8092357,58.0282803 53.5015924,57.9512102" id="Fill-1" fill-opacity="0.25" fill="#000000"></path>
                        <path d="M120.351911,58.7219108 C121.636624,58.7219108 122.929618,58.3352866 124.032166,57.6875159 L115.869745,57.686879 C117.095223,58.3480255 118.590764,58.7219108 120.351911,58.7219108" id="Fill-3" fill-opacity="0.25" fill="#000000"></path>
                        <path d="M60.8867516,58.7219108 C62.1128662,58.7219108 63.2147771,58.3110828 64.1644586,57.686879 L57.0542675,57.6875159 C58.1287898,58.3550318 59.4198726,58.7219108 60.8867516,58.7219108" id="Fill-5" fill-opacity="0.25" fill="#000000"></path>
                        <path d="M104.41465,58.7219108 C105.7,58.7219108 106.992994,58.3352866 108.095541,57.6875159 L99.9324841,57.686879 C101.157962,58.3480255 102.65414,58.7219108 104.41465,58.7219108" id="Fill-7" fill-opacity="0.25" fill="#000000"></path>
                        <path d="M146.732803,57.9512102 C146.025159,57.8098089 145.711783,57.7932484 145.320701,57.686879 L144.394586,57.686879 L145.320701,57.686879 C145.179936,57.6486624 145.028344,57.5989809 144.844904,57.5276433 C144.644268,57.4607643 144.188854,57.0333758 143.546178,56.3429299 L143.545541,56.3429299 C142.442357,55.1569427 140.786306,53.2002548 138.916879,50.9703185 C138.193312,50.1066242 137.436624,49.2015287 136.667834,48.2843312 L135.298408,48.2836943 L136.667834,48.2836943 C136.58121,48.1805096 136.493949,48.0766879 136.406688,47.9722293 C139.698408,44.7836943 141.34172,43.3951592 142.288217,42.9110828 L138.945541,42.9104459 C139.102229,43.0830573 139.14172,43.2524841 139.14172,43.386879 C139.14172,43.7340127 137.832166,45.3136306 135.096497,48.0875159 C135.028981,48.1556688 134.960191,48.2206369 134.890127,48.2836943 C134.326433,48.7926115 133.706051,49.1276433 133.054459,49.1276433 L133.054459,48.2836943 L129.230892,48.2836943 C129.22707,49.2843312 129.220064,50.176051 129.211146,50.9703185 C129.180573,53.8512102 129.126433,55.4480255 129.052548,56.3435669 L133.208599,56.3442038 C133.124522,55.32 133.085669,53.5875159 133.062102,50.9703185 C133.059554,50.675414 133.057006,50.3696815 133.054459,50.053121 C133.580573,50.1505732 133.937898,50.3614013 134.532803,50.9709554 L134.533439,50.9709554 C134.636624,51.0766879 134.746815,51.1938854 134.865287,51.3244586 C136.926433,53.6938854 138.211783,55.3747771 138.849363,56.3442038 C139.165287,56.8244586 139.321975,57.1301911 139.33535,57.2575796 C139.33535,57.4397452 139.292038,57.5785987 139.10414,57.686879 L139.102866,57.686879 C138.892675,57.8078981 138.503503,57.8900637 137.793949,57.9512102 C137.524522,57.9900637 137.600955,58.4136306 137.793949,58.375414 C138.757006,58.2983439 140.452548,58.2594904 142.378662,58.2594904 C144.267197,58.2594904 145.769745,58.2983439 146.732803,58.375414 C146.925796,58.4136306 147.079936,58.0282803 146.732803,57.9512102" id="Fill-9" fill-opacity="0.25" fill="#000000"></path>
                        <path d="M24.4982803,57.9512102 C23.8473248,57.8098089 23.5498726,57.7932484 23.2536943,57.686879 C23.1473248,57.6486624 23.0409554,57.5989809 22.9186624,57.5276433 C22.7670701,57.4333758 22.6995541,57.2741401 22.656242,56.3442038 C22.6148408,55.4569427 22.5957325,53.8696815 22.5473248,50.9703185 L18.6409554,50.9709554 C18.633949,53.8563057 18.5855414,55.4512102 18.5084713,56.3442038 L21.7511465,56.3442038 L18.5084713,56.3448408 C18.4269427,57.2913376 18.312293,57.4518471 18.1798089,57.5276433 C18.0575159,57.5989809 17.9269427,57.6486624 17.7842675,57.686879 L20.5192994,57.686879 L17.7842675,57.686879 C17.3893631,57.7932484 16.9046497,57.8098089 16.2536943,57.9512102 C15.9441401,58.0282803 16.0218471,58.4136306 16.2142038,58.375414 C17.1778981,58.2983439 18.6798089,58.2594904 20.6071975,58.2594904 C22.379172,58.2594904 23.4199363,58.2983439 24.5371338,58.375414 C24.7294904,58.4136306 24.8065605,58.0282803 24.4982803,57.9512102" id="Fill-11" fill-opacity="0.25" fill="#000000"></path>
                        <path d="M135.173885,57.9512102 C134.52293,57.8098089 134.16242,57.7932484 133.833758,57.686879 L131.089172,57.686879 L133.833758,57.686879 C133.715287,57.6486624 133.601274,57.5989809 133.478981,57.5276433 C133.356051,57.4664968 133.270701,57.0951592 133.20828,56.3448408 L129.052866,56.3442038 C128.970701,57.3327389 128.864331,57.464586 128.73949,57.5276433 C128.617197,57.5989809 128.486624,57.6486624 128.343949,57.686879 C127.949045,57.7932484 127.464331,57.8098089 126.812739,57.9512102 C126.542675,58.0282803 126.582166,58.4136306 126.773885,58.375414 C127.776433,58.2983439 129.124841,58.2594904 131.050955,58.2594904 C132.823567,58.2594904 134.094904,58.2983439 135.212739,58.375414 C135.366879,58.4136306 135.443949,58.0282803 135.173885,57.9512102" id="Fill-13" fill-opacity="0.25" fill="#000000"></path>
                        <path d="M28.4673885,57.5276433 C28.3450955,57.5989809 28.2463694,57.6486624 28.1521019,57.686879 L30.9113376,57.686879 L28.1521019,57.686879 C27.8896815,57.7932484 27.6546497,57.8098089 27.0030573,57.9512102 C26.6947771,58.0282803 26.7718471,58.4136306 26.9648408,58.375414 C28.0820382,58.2983439 29.1221656,58.2594904 30.8947771,58.2594904 C32.8208917,58.2594904 34.0540127,58.2983439 35.0170701,58.375414 C35.2094268,58.4136306 35.2871338,58.0282803 34.9788535,57.9512102 C34.3272611,57.8098089 33.9884076,57.7932484 33.6705732,57.686879 L33.6699363,57.686879 C33.5559236,57.6486624 33.4438217,57.5989809 33.3215287,57.5276433 C33.2126115,57.4652229 33.1170701,57.2149045 33.0406369,56.3442038 L28.8642038,56.3442038 C28.7667516,57.130828 28.6278981,57.4397452 28.4673885,57.5276433" id="Fill-15" fill-opacity="0.25" fill="#000000"></path>
                        <path d="M65.8180892,55.4849045 C65.4836943,55.8033758 65.0964331,56.1027389 64.6766879,56.3435032 L64.9142675,56.3435032 L64.6766879,56.3441401 C64.0798726,56.6855414 63.4149045,56.9103822 62.7359236,56.9103822 C61.9524841,56.9103822 61.2556688,56.7091083 60.6524841,56.3447771 C59.0996178,55.4065605 58.1671338,53.3919108 57.9626752,50.9702548 L55.4964331,50.9696178 L57.9626752,50.9696178 C57.9340127,50.6326752 57.92,50.2880892 57.92,49.9371338 C57.92,49.3530573 57.9352866,48.801465 57.9684076,48.2836306 C58.1518471,45.3957325 58.876051,43.5530573 60.4747771,42.9103822 L57.8964331,42.9116561 C55.831465,44.0422293 54.3034395,45.9409554 53.7518471,48.2836306 C53.6047134,48.9078344 53.5270064,49.5645223 53.5270064,50.245414 C53.5270064,50.4906369 53.5340127,50.7320382 53.5473885,50.9702548 C53.6715924,53.1485987 54.3588535,54.9976433 55.5002548,56.3441401 C55.9499363,56.8734395 56.4703185,57.3250318 57.0543949,57.6874522 L64.163949,57.6868153 C64.7467516,57.3040127 65.2728662,56.8415924 65.7340127,56.3441401 L65.7346497,56.3441401 C65.8435669,56.2250318 65.9480255,56.1065605 66.0492994,55.9861783 C66.0881529,55.9479618 66.3582166,56.0250318 66.3582166,56.1403185 C66.3633121,56.2071975 66.3709554,56.2747134 66.3785987,56.3435032 C66.4289172,56.7804459 66.5136306,57.2543312 66.609172,57.6868153 L69.042293,57.6868153 L66.609172,57.6868153 C66.6894268,58.0505096 66.7773248,58.3855414 66.8588535,58.6447771 C66.8964331,58.8377707 67.0894268,58.9148408 67.2059873,58.8377707 C68.1391083,58.4377707 70.053121,58.0371338 71.476051,57.6868153 L71.4766879,57.6868153 C71.6970701,57.6326752 71.9072611,57.579172 72.0983439,57.5275796 C72.2913376,57.4887261 72.4072611,57.1804459 72.0601274,57.1804459 C71.0582166,57.1804459 70.8270064,56.9498726 70.4798726,56.5638854 C70.4391083,56.5091083 70.4002548,56.4435032 70.364586,56.3441401 C70.2059873,55.8982803 70.108535,54.7817197 70.130828,50.9708917 L66.308535,50.9702548 L66.2416561,54.5218471 C66.2416561,54.946051 66.1263694,55.1390446 65.8180892,55.4849045" id="Fill-17" fill-opacity="0.25" fill="#000000"></path>
                        <path d="M47.2584076,50.9709554 C47.2526752,53.8563057 47.2131847,55.4512102 47.1405732,56.3442038 L51.2093631,56.3429299 C51.121465,55.4556688 51.0800637,53.8690446 51.1042675,50.9703185 L47.2584076,50.9709554 Z" id="Fill-19" fill-opacity="0.25" fill="#000000"></path>
                        <path d="M118.161847,42.9105732 L118.162484,42.9105732 C118.682229,42.4965605 119.345924,42.2698089 120.197516,42.2698089 C120.880955,42.2698089 121.410255,42.513121 121.81535,42.9112102 L121.815987,42.9112102 C122.806433,43.8838217 123.054841,45.7749045 122.972038,47.2780892 C122.972038,47.3557962 120.698153,47.3169427 120.43,47.3169427 C117.963121,47.3557962 117.347197,47.3940127 116.383503,47.3940127 C116.641465,45.3557962 117.10707,43.7494268 118.161847,42.9105732 M126.324268,54.6379618 C125.640191,55.4997452 124.26758,56.1099363 122.861847,56.3436943 L122.855478,56.3436943 C122.442102,56.413121 122.025541,56.4487898 121.623631,56.4487898 C121.208981,56.4487898 120.818535,56.413121 120.452293,56.3430573 L120.449745,56.3430573 C117.926178,55.8615287 116.545287,53.790828 116.251019,50.9710828 L113.466943,50.9710828 L116.251019,50.9704459 C116.210892,50.5882803 116.191146,50.191465 116.191146,49.7831847 C116.191146,49.0430573 116.191146,48.8188535 116.279045,48.2850955 L113.685414,48.2844586 L116.279045,48.2838217 C116.287962,48.2347771 116.296242,48.1819108 116.306433,48.1258599 C117.270127,48.0870064 117.771401,48.0870064 120.43,48.0870064 C123.858025,48.0870064 126.826178,48.28 127.094331,47.6640764 C127.44465,46.8901911 126.95293,44.4971975 124.99051,42.9099363 L124.988599,42.9099363 C123.922994,42.046879 122.423631,41.4220382 120.39051,41.4220382 C118.489236,41.4220382 116.784777,41.9634395 115.405159,42.9105732 L115.403885,42.9105732 C113.631274,44.1290446 112.394331,46.0156688 111.965032,48.2838217 C111.855478,48.8634395 111.798153,49.4672611 111.798153,50.090828 C111.798153,50.3882803 111.808981,50.6819108 111.831911,50.9710828 C111.994968,53.0895541 112.755478,54.9672611 114.089873,56.3436943 C114.599427,56.8698089 115.193694,57.3214013 115.86949,57.6870064 L124.032548,57.6870064 C124.663121,57.3169427 125.231911,56.8615287 125.700064,56.3436943 L125.700701,56.3436943 C126.108344,55.8927389 126.439554,55.3965605 126.670764,54.869172 C126.786688,54.5991083 126.401975,54.4831847 126.324268,54.6379618" id="Fill-21" fill-opacity="0.25" fill="#000000"></path>
                        <path d="M66.3187898,50.3996178 L66.3079618,50.9703185 L70.1302548,50.9703185 C70.1308917,50.8352866 70.1321656,50.6957962 70.1328025,50.553758 L70.1519108,48.2836943 L66.2869427,48.2836943 C66.3149682,48.8970701 66.3264331,49.5970701 66.3187898,50.3996178" id="Fill-23" fill-opacity="0.25" fill="#000000"></path>
                        <path d="M107.035223,47.2783439 C107.035223,47.355414 104.761975,47.3171975 104.492548,47.3171975 C102.026306,47.355414 101.410382,47.3942675 100.446688,47.3942675 C100.705287,45.356051 101.170255,43.7490446 102.224395,42.910828 L102.225669,42.910828 C102.746051,42.4968153 103.409108,42.2700637 104.261338,42.2700637 C104.943503,42.2700637 105.473439,42.5133758 105.879172,42.911465 C106.869618,43.8834395 107.117389,45.7751592 107.035223,47.2783439 M109.053057,42.9095541 L109.051783,42.9095541 C107.985541,42.0471338 106.486815,41.422293 104.453694,41.422293 C102.551783,41.422293 100.847325,41.9636943 99.4683439,42.910828 L99.4670701,42.910828 C97.6944586,44.1286624 96.4581529,46.0159236 96.0282166,48.2840764 C95.9186624,48.8636943 95.8613376,49.4675159 95.8613376,50.0910828 C95.8613376,50.388535 95.8728025,50.6815287 95.8950955,50.9707006 C96.0581529,53.0898089 96.8180255,54.9675159 98.1530573,56.343949 C98.6626115,56.8694268 99.256242,57.3216561 99.9326752,57.6866242 L108.095732,57.6866242 C108.726306,57.3165605 109.295096,56.8611465 109.763248,56.343949 L109.763885,56.343949 C110.171529,55.8929936 110.502102,55.3968153 110.733949,54.8687898 C110.849873,54.5993631 110.465159,54.4834395 110.388089,54.6375796 C109.702739,55.5 108.330127,56.1101911 106.924395,56.343949 L106.918025,56.343949 C106.505287,56.4127389 106.088726,56.4490446 105.686815,56.4490446 C105.272166,56.4490446 104.88172,56.4127389 104.515478,56.3433121 L104.512293,56.3433121 C101.989363,55.8617834 100.608471,53.7904459 100.314204,50.9707006 L97.5301274,50.9707006 L100.314204,50.9700637 C100.274076,50.5878981 100.254331,50.1917197 100.254331,49.7828025 C100.254331,49.0433121 100.254331,48.8184713 100.342229,48.2847134 L97.7485987,48.2840764 L100.342229,48.2840764 C100.35051,48.2343949 100.360064,48.1821656 100.369618,48.1261146 C101.333312,48.0872611 101.833949,48.0872611 104.492548,48.0872611 C107.921847,48.0872611 110.888726,48.2802548 111.158153,47.6636943 C111.507197,46.8898089 111.015478,44.4974522 109.053057,42.9095541" id="Fill-25" fill-opacity="0.25" fill="#000000"></path>
                        <path d="M33.2450318,45.6605096 C34.1692357,44.6197452 34.9017197,44.1191083 36.4813376,44.1191083 C38.5622293,44.1191083 39.2170064,45.4292994 39.2940764,47.4324841 C39.3010828,47.7248408 39.3074522,48.0089172 39.3131847,48.2840764 L43.2271975,48.2834395 C43.2252866,47.656051 43.2240127,46.9878981 43.2240127,46.2764331 C43.2240127,44.9146497 42.8902548,43.7394904 42.1329299,42.910828 L35.1717834,42.911465 C34.376879,43.5101911 33.6316561,44.2764331 32.9367516,45.1210191 C32.8978981,45.1592357 32.6284713,45.1210191 32.5896178,44.966879 C32.4023567,44.2171975 32.0119108,43.4987261 31.4609554,42.910828 L24.61,42.910828 C23.8870701,43.5038217 23.1908917,44.2394904 22.4953503,45.043949 C22.4564968,45.1210191 22.1482166,45.043949 22.1482166,44.9286624 C22.1647771,44.3171975 22.2023567,43.5847134 22.2463057,42.910828 C22.3042675,42.0152866 22.3736943,41.2235669 22.4176433,40.9592357 C22.4176433,40.8050955 22.2252866,40.5745223 21.9940764,40.766879 C21.1463057,41.4292994 19.7889809,42.2732484 18.4227389,42.910828 L21.1335669,42.910828 L18.4227389,42.911465 C17.8017197,43.2019108 17.1781529,43.4496815 16.5998089,43.6178344 C16.4456688,43.6566879 16.3297452,43.9267516 16.6386624,43.9649682 C17.5635032,44.0420382 17.8329299,44.1961783 18.1800637,44.5050955 C18.5049045,44.7974522 18.61,45.3369427 18.6354777,48.2840764 C18.6399363,48.8261146 18.6418471,49.4496815 18.6418471,50.1681529 C18.6418471,50.4464968 18.6412102,50.7140127 18.6405732,50.9700637 L22.5469427,50.9694268 C22.5424841,50.7127389 22.5380255,50.4458599 22.5335669,50.1681529 L22.4947134,48.2840764 L22.4564968,46.4305732 C22.4564968,45.9681529 22.5717834,45.7757962 22.8807006,45.4292994 C23.7284713,44.4273885 24.6526752,44.0038217 26.1170064,44.0038217 C28.1201911,44.0038217 28.8526752,45.0828025 28.9297452,47.5095541 C28.9367516,47.7738854 28.943758,48.0318471 28.9507643,48.2840764 C28.976879,49.2802548 28.9940764,50.1719745 29.0042675,50.9700637 C29.0386624,53.7541401 28.9813376,55.3955414 28.8641401,56.343949 L33.0405732,56.3433121 C32.9603185,55.4203822 32.9017197,53.8012739 32.8756051,50.9700637 C32.8679618,50.1745223 32.8628662,49.2828025 32.8609554,48.2840764 C32.8603185,47.8764331 32.8596815,47.4522293 32.8596815,47.0082803 L32.8596815,46.6624204 C32.8596815,46.2382166 32.9367516,46.0070064 33.2450318,45.6605096" id="Fill-27" fill-opacity="0.25" fill="#000000"></path>
                        <path d="M133.102611,42.9105732 L133.208981,31.3659873 C133.208981,30.9417834 133.247197,29.0921019 133.401338,28.591465 C133.439554,28.4373248 133.247197,28.1678981 133.015987,28.3220382 C131.474586,29.2850955 128.893694,30.4793631 126.889873,31.0188535 C126.696879,31.057707 126.619809,31.3264968 126.928726,31.3659873 C127.85293,31.4812739 128.39242,31.635414 128.739554,31.8666242 C129.110892,32.0895541 129.231911,33.2099363 129.240191,42.9112102 C129.240828,43.2640764 129.240828,43.6277707 129.240828,44.0035669 C129.240828,45.6163057 129.237643,47.0347771 129.231274,48.2831847 L133.054841,48.2838217 L133.054841,48.1258599 L133.102611,42.9105732 Z" id="Fill-29" fill-opacity="0.25" fill="#000000"></path>
                        <path d="M45.2947134,43.6949682 C46.1807006,43.8497452 46.4501274,44.0803185 46.7972611,44.4274522 C47.1227389,44.7529299 47.2278344,45.3261783 47.2526752,48.2841401 C47.2577707,48.8268153 47.2596815,49.4510191 47.2596815,50.1682166 C47.2596815,50.4465605 47.2590446,50.7140764 47.2584076,50.9701274 L51.1042675,50.9694904 C51.1068153,50.7128025 51.1093631,50.4459236 51.1125478,50.1682166 L51.1373885,48.2841401 L51.1896178,44.3115287 C51.1896178,43.8287261 51.1947134,43.3510191 51.2017197,42.9108917 L46.7221019,42.9108917 C46.1978981,43.1064331 45.6851592,43.2605732 45.2176433,43.3491083 C45.0628662,43.3873248 44.9864331,43.6178981 45.2947134,43.6949682" id="Fill-31" fill-opacity="0.25" fill="#000000"></path>
                        <path d="M48.9546497,36.9140764 C50.573121,36.9140764 51.4591083,35.873949 51.4591083,34.486051 C51.4591083,33.0994268 50.4571975,32.0975159 49.1476433,32.0975159 C47.6444586,32.0975159 46.5272611,33.0994268 46.5272611,34.7178981 C46.5272611,35.9892357 47.5673885,36.9140764 48.9546497,36.9140764" id="Fill-33" fill-opacity="0.25" fill="#000000"></path>
                        <path d="M137.06172,42.1921656 C138.169363,42.3571338 138.700573,42.6380255 138.945796,42.91 L142.288471,42.9106369 C142.406306,42.8507643 142.513312,42.8049045 142.610127,42.7705096 C143.380828,42.5010828 143.881465,42.3851592 144.806306,42.2698726 C145.114586,42.2310191 144.959809,41.8463057 144.806306,41.8463057 C143.804395,41.9233758 143.612038,41.9233758 141.685924,41.9233758 C139.758535,41.9233758 138.062994,41.8845223 137.06172,41.7692357 C136.869363,41.7692357 136.792293,42.153949 137.06172,42.1921656" id="Fill-35" fill-opacity="0.25" fill="#000000"></path>
                        <path d="M28.1202548,41.4603822 C26.829172,41.4603822 25.6890446,42.0266242 24.6100637,42.9107006 L31.4610191,42.9100637 C30.6521019,42.0463694 29.4947771,41.4603822 28.1202548,41.4603822" id="Fill-37" fill-opacity="0.25" fill="#000000"></path>
                        <path d="M50.8424841,40.7671338 C49.9221019,41.4002548 48.2698726,42.3340127 46.7221019,42.9104459 L51.2017197,42.9104459 C51.2163694,42.0843312 51.2412102,41.3887898 51.2666879,41.0365605 C51.2666879,40.8824204 51.0736943,40.6129936 50.8424841,40.7671338" id="Fill-39" fill-opacity="0.25" fill="#000000"></path>
                        <path d="M98.0638854,42.1921656 C98.3721656,42.1150955 98.256879,41.7303822 98.0638854,41.7692357 C97.0619745,41.8845223 96.9466879,41.9233758 95.0199363,41.9233758 C93.1320382,41.9233758 91.8224841,41.8845223 90.8205732,41.7692357 C90.6275796,41.7303822 90.5505096,42.153949 90.8205732,42.1921656 C92.2224841,42.3794268 93.0702548,42.5915287 93.3428662,42.9106369 L93.3435032,42.9106369 C93.4071975,42.9857962 93.4396815,43.0673248 93.4396815,43.1558599 C93.4396815,43.6756051 92.9320382,45.3342038 91.856879,48.2838854 L92.8358599,48.2838854 L91.856879,48.2845223 C91.5657962,49.0838854 91.2326752,49.9775159 90.8581529,50.9698726 L90.8575159,50.9698726 C90.5632484,51.7463057 90.2428662,52.5838854 89.8957325,53.4819745 C89.6218471,52.5889809 89.3543312,51.7520382 89.0970064,50.9705096 C88.7721656,49.9864331 88.4645223,49.0915287 88.1798089,48.2838854 C87.1517834,45.3603185 86.4415924,43.5902548 86.4301274,42.9106369 C86.4288535,42.8176433 86.4403185,42.7450318 86.4664331,42.6934395 C86.6594268,42.3080892 87.9307643,42.4240127 88.7396815,42.1921656 C89.0091083,42.1150955 88.9320382,41.7303822 88.7396815,41.7692357 C87.7377707,41.8845223 85.734586,41.9233758 83.8078344,41.9233758 C81.8428662,41.9233758 81.1110191,41.8845223 80.0702548,41.7692357 C79.9167516,41.7692357 79.7626115,42.1150955 80.0702548,42.1921656 C81.0721656,42.3851592 81.2651592,42.3851592 81.8046497,42.6552229 C81.8747134,42.6934395 81.956879,42.7794268 82.0492357,42.9106369 L82.0498726,42.9106369 C82.5161146,43.566051 83.2556051,45.3373885 84.1543312,47.7794268 C84.0772611,47.9494904 83.9995541,48.1163694 83.923121,48.2832484 L83.9224841,48.2832484 C83.5224841,49.1482166 83.1263057,49.9851592 82.6626115,50.9705096 C82.2435032,51.8615924 81.7696178,52.8736943 81.1880892,54.1367516 C80.7632484,53.0189172 80.3485987,51.9596815 79.9536943,50.9705096 L79.9530573,50.9705096 C79.5683439,50.0049045 79.2027389,49.1068153 78.8664331,48.2838854 C77.7358599,45.5131847 76.945414,43.6042675 76.8906369,42.9106369 L73.3842675,42.9106369 L76.8906369,42.91 C76.8829936,42.8144586 76.89,42.7418471 76.9110191,42.6934395 C77.1040127,42.3080892 77.7970064,42.4240127 78.567707,42.1921656 C78.8759873,42.1150955 78.7989172,41.7303822 78.567707,41.7692357 C77.6046497,41.8845223 75.9473248,41.9233758 73.9823567,41.9233758 C72.078535,41.9233758 71.2282166,41.8851592 70.2040127,41.7730573 L70.2880892,31.365414 C70.2880892,30.9418471 70.3256688,29.0921656 70.4798089,28.5915287 C70.5192994,28.4373885 70.3256688,28.1673248 70.0950955,28.3221019 C68.5543312,29.2851592 65.9721656,30.4794268 63.9689809,31.0189172 C63.7759873,31.0577707 63.6989172,31.3265605 64.0071975,31.365414 C64.9320382,31.4813376 65.4715287,31.6354777 65.8180255,31.8666879 C66.2040127,32.0978981 66.3186624,32.8297452 66.3186624,42.3469427 C66.3186624,42.5010828 66.1263057,42.5392994 65.9721656,42.5010828 C64.8167516,41.9998089 64.123121,41.7692357 62.4657962,41.7692357 C60.7970064,41.7692357 59.233949,42.1787898 57.8970064,42.9106369 L60.4747134,42.91 C60.8957325,42.7412102 61.3778981,42.6552229 61.9269427,42.6552229 C62.4829936,42.6552229 63.0078344,42.7412102 63.4906369,42.9106369 C64.078535,43.1157325 64.6033758,43.443758 65.0479618,43.887707 C65.7078344,44.5475796 66.1626115,45.5666879 66.2868153,48.2832484 L70.1517834,48.2838854 L70.1950955,42.9106369 L70.200828,42.198535 C71.1817197,42.3857962 71.7161146,42.4265605 72.2874522,42.6552229 C72.3619745,42.6826115 72.4517834,42.7692357 72.556242,42.9106369 C73.0670701,43.6055414 73.9173885,45.6125478 74.9619745,48.2838854 L77.7052866,48.2838854 L74.9619745,48.2845223 C75.2893631,49.121465 75.6358599,50.0233758 75.9970064,50.9705096 L76.7728025,50.9711465 L75.9970064,50.9711465 C76.6384076,52.6552229 77.3269427,54.4826115 78.0377707,56.343758 L78.0384076,56.343758 C78.2084713,56.7902548 78.3804459,57.2392994 78.5530573,57.6870701 L79.3753503,57.687707 L78.5530573,57.6883439 C78.6855414,58.0329299 78.8192994,58.3775159 78.9524204,58.7221019 C79.0301274,58.9533121 79.9543312,59.0303822 80.1097452,58.6832484 C80.2390446,58.3590446 80.3753503,58.0271975 80.5161146,57.6883439 L80.5167516,57.6883439 C80.700828,57.2469427 80.8938217,56.7966242 81.0925478,56.343758 L79.5645223,56.343121 L81.0925478,56.3424841 C81.9027389,54.4864331 82.8027389,52.5692357 83.5759873,50.9717834 L83.5766242,50.9717834 C83.9314013,50.2386624 84.2594268,49.5730573 84.5396815,49.0125478 C84.756879,49.620828 84.9823567,50.2787898 85.2142038,50.9705096 L87.3224841,50.9711465 L85.2142038,50.9717834 C85.7702548,52.6310191 86.3632484,54.4889809 86.9759873,56.343758 L87.3377707,56.343758 L86.9759873,56.343758 C87.123758,56.7921656 87.2734395,57.2405732 87.423758,57.6870701 C87.5409554,58.0342038 87.6581529,58.3800637 87.7766242,58.7221019 C87.8536943,58.9533121 88.8167516,59.0303822 88.9320382,58.6832484 C89.0536943,58.3507643 89.1753503,58.0189172 89.2963694,57.6883439 L89.2970064,57.6883439 C89.4626115,57.2373885 89.6282166,56.7889809 89.7938217,56.3443949 L89.7944586,56.3443949 C90.5001911,54.4482166 91.1963694,52.6291083 91.8575159,50.9711465 C92.2384076,50.0170064 92.6071975,49.1157325 92.9587898,48.2838854 L92.9594268,48.2838854 C94.101465,45.5883439 95.0734395,43.6176433 95.7129299,42.9106369 L93.8804459,42.9106369 L95.7129299,42.91 C95.8263057,42.7838854 95.9294904,42.6978981 96.0218471,42.6552229 C96.5995541,42.3851592 97.100828,42.4240127 98.0638854,42.1921656" id="Fill-41" fill-opacity="0.25" fill="#000000"></path>
                        <path d="M38.6005732,41.6143312 C37.37,41.6143312 36.2266879,42.1156051 35.1719108,42.9105096 L42.1330573,42.9098726 C41.3903822,42.0958599 40.2407006,41.6143312 38.6005732,41.6143312" id="Fill-43" fill-opacity="0.25" fill="#000000"></path>
                        <mask id="mask-2" fill="white">
                            <use xlink:href="#path-1"></use>
                        </mask>
                        <g id="Clip-46"></g>
                        <polygon id="Stroke-45" mask="url(#mask-2)" points="0.31910828 99.6242038 162.815287 99.6242038 162.815287 0.318471338 0.31910828 0.318471338"></polygon>
                    </g>
                </g>
            </g>
        </g>
    </g>
</svg>