<?xml version="1.0" encoding="UTF-8"?>
<svg width="163px" height="102px" viewBox="0 0 163 102" version="1.1" xmlns="http://www.w3.org/2000/svg" xmlns:xlink="http://www.w3.org/1999/xlink">
    <title>logo_5</title>
    <defs>
        <polygon id="path-1" points="0 99.3670886 162.101266 99.3670886 162.101266 0.0569620253 0 0.0569620253"></polygon>
    </defs>
    <g id="Landing-Page-Copy" stroke="none" stroke-width="1" fill="none" fill-rule="evenodd">
        <g id="Home-landing-page" transform="translate(-1143.000000, -747.000000)">
            <g id="07_Our-Client" transform="translate(235.000000, 747.000000)">
                <g id="Client-Logo" transform="translate(144.000000, 0.000000)">
                    <g id="logo_5" transform="translate(764.000000, 0.500000)">
                        <polygon id="Fill-1" fill-opacity="0.25" fill="#000000" points="61.2003797 44.0667722 61.2003797 40.9560127 48.2668354 40.9560127 48.2668354 44.0667722 52.7693671 44.0667722 52.7693671 56.3458861 48.2668354 56.3458861 48.2668354 59.4560127 61.2003797 59.4560127 61.2003797 56.3458861 56.2889873 56.3458861 56.2889873 44.0667722"></polygon>
                        <g id="Group-16" transform="translate(0.000000, 0.575949)">
                            <path d="M82.6877848,43.613481 L77.5314557,43.613481 L77.5314557,48.6887975 C77.5314557,48.6887975 80.3137342,48.6071519 82.6061392,48.6071519 C84.8979114,48.6071519 85.4706962,48.1160127 85.4706962,45.8236076 C85.4706962,43.2046203 82.6877848,43.613481 82.6877848,43.613481" id="Fill-2" fill-opacity="0.25" fill="#000000"></path>
                            <path d="M89.1547468,54.4187342 L89.1547468,58.6756962 L85.4712025,58.6756962 L85.4712025,54.6643038 C85.4712025,54.6643038 85.4712025,51.5541772 83.3427215,51.5541772 C81.2148734,51.5541772 77.5313291,51.6358228 77.5313291,51.6358228 L77.5313291,58.7573418 L73.9287975,58.7573418 L73.9287975,40.4212658 L84.5705696,40.4212658 C84.5705696,40.4212658 89.1547468,40.1756962 89.1547468,45.1687342 C89.1547468,50.1624051 86.3718354,50.4079747 86.3718354,50.4079747 C86.3718354,50.4079747 89.1547468,50.5712658 89.1547468,54.4187342 L89.1547468,54.4187342 Z M67.789557,63.341519 L94.5566456,63.341519 L94.5566456,36.0832911 L67.789557,36.0832911 L67.789557,63.341519 Z" id="Fill-4" fill-opacity="0.25" fill="#000000"></path>
                            <polygon id="Fill-6" fill-opacity="0.25" fill="#000000" points="99.4686076 40.4211392 99.4686076 43.4502532 102.006582 43.4502532 102.006582 55.8103797 99.4686076 55.8103797 99.4686076 58.8394937 115.103418 58.8394937 115.103418 52.8635443 111.992658 52.8635443 111.992658 55.8103797 105.362278 55.8103797 105.362278 50.8173418 110.273671 50.8173418 110.273671 47.7882278 105.362278 47.7882278 105.362278 43.4502532 111.747089 43.4502532 111.747089 46.3964557 115.103418 46.3964557 115.103418 40.4211392"></polygon>
                            <path d="M136.386392,43.5318987 L130.819937,43.5318987 L130.819937,55.8103797 L136.631962,55.8103797 C139.414873,55.8103797 139.496519,52.208481 139.496519,52.208481 L139.496519,47.4610127 C139.496519,43.2856962 136.386392,43.5318987 136.386392,43.5318987" id="Fill-8" fill-opacity="0.25" fill="#000000"></path>
                            <path d="M136.79557,59.003038 C130.083544,59.003038 127.05443,59.0846835 127.05443,59.0846835 L127.05443,40.503038 L134.994304,40.503038 C134.994304,40.503038 143.18038,39.603038 143.18038,46.9701266 L143.18038,52.1270886 C143.18038,52.1270886 143.506962,59.003038 136.79557,59.003038 L136.79557,59.003038 Z M121.078481,63.3410127 L147.846203,63.3410127 L147.846203,36.0827848 L121.078481,36.0827848 L121.078481,63.3410127 Z" id="Fill-10" fill-opacity="0.25" fill="#000000"></path>
                            <path d="M35.5384177,58.8392405 L30.9542405,58.8392405 L28.0074051,45.4962025 L24.815,58.9208861 L20.3131013,58.9208861 L16.5472785,40.5031646 L20.2308228,40.5031646 L22.7687975,54.5012658 L26.0428481,40.5031646 L30.0536076,40.585443 L33.3282911,54.7462025 L35.7839873,40.5031646 L39.3036076,40.5031646 L35.5384177,58.8392405 Z M14.2555063,63.3411392 L41.0225949,63.3411392 L41.0225949,36.0829114 L14.2555063,36.0829114 L14.2555063,63.3411392 Z" id="Fill-12" fill-opacity="0.25" fill="#000000"></path>
                            <mask id="mask-2" fill="white">
                                <use xlink:href="#path-1"></use>
                            </mask>
                            <g id="Clip-15"></g>
                            <polygon id="Stroke-14" mask="url(#mask-2)" points="0.316455696 99.0506329 161.78481 99.0506329 161.78481 0.373417722 0.316455696 0.373417722"></polygon>
                        </g>
                    </g>
                </g>
            </g>
        </g>
    </g>
</svg>