<?xml version="1.0" encoding="UTF-8"?>
<svg width="45px" height="32px" viewBox="0 0 45 32" version="1.1" xmlns="http://www.w3.org/2000/svg" xmlns:xlink="http://www.w3.org/1999/xlink">
    <title>Quote Pattern</title>
    <g id="Landing-Page-Copy" stroke="none" stroke-width="1" fill="none" fill-rule="evenodd">
        <g id="Home-landing-page" transform="translate(-675.000000, -4326.000000)" fill="#4697FF" fill-rule="nonzero">
            <g id="08_Testimonials" transform="translate(205.000000, 4019.000000)">
                <g id="Client-Says" transform="translate(470.000000, 307.000000)">
                    <g id="Quote-Pattern" transform="translate(22.500000, 16.000000) scale(1, -1) translate(-22.500000, -16.000000) ">
                        <path d="M9.93533937,0.288154785 C4.45706988,0.288154785 0.000730309988,4.74449499 0.000730309988,10.2228346 C0.000730309988,15.5076952 4.14809017,19.8423043 9.35909987,20.1417637 C9.44932959,21.1158849 9.3816398,23.7675556 6.84070984,27.4562034 C6.64863006,27.7344554 6.68348999,28.1097243 6.92205348,28.3482852 C7.96182961,29.3880633 8.60442974,30.0429141 9.05417967,30.5009246 C9.64280931,31.0997741 9.91146965,31.3731955 10.3045194,31.7300554 C10.4377994,31.8510142 10.6059395,31.9118433 10.7748532,31.9118433 C10.9388596,31.9118433 11.1022392,31.8544455 11.2341901,31.7402747 C15.6618294,27.8875457 20.580309,19.9270752 19.8686893,10.1722247 C19.4516986,4.44510499 15.2742398,0.288154785 9.93533937,0.288154785 Z" id="Shape"></path>
                        <path d="M44.7303074,10.1722246 L44.7303074,10.171525 C44.3119186,4.44510499 40.1338284,0.288154785 34.7963285,0.288154785 C29.3179896,0.288154785 24.8609531,4.74449499 24.8609531,10.2228346 C24.8609531,15.5076952 29.0090079,19.8423043 34.2207186,20.1417637 C34.3109529,21.1151852 34.2425589,23.7654541 31.7009975,27.4562034 C31.5089183,27.7344554 31.5437789,28.1097244 31.7823398,28.3482852 C32.8179896,29.3839351 33.4591899,30.0374534 33.9090079,30.4947642 C34.5002978,31.0976752 34.7703574,31.3724932 35.1654399,31.7306856 C35.2987193,31.8510142 35.4675589,31.9118433 35.6357684,31.9118433 C35.7998522,31.9118433 35.9632284,31.8544455 36.0951086,31.739575 C40.5227532,27.8868434 45.4412262,19.9264451 44.7303074,10.1722246 Z" id="Shape"></path>
                    </g>
                </g>
            </g>
        </g>
    </g>
</svg>